<?xml version="1.0" standalone="no"?>
<!DOCTYPE svg PUBLIC "-//W3C//DTD SVG 20010904//EN"
 "http://www.w3.org/TR/2001/REC-SVG-20010904/DTD/svg10.dtd">
<svg class="img-fluid" id="outputsvg" xmlns="http://www.w3.org/2000/svg" width="84" height="210" viewBox="0 0 840 2100"><g id="l2x8RDanEV5eETxnCYSlNNY" fill="rgb(255,255,255)" style="transform: none;"><g></g></g><g id="l2Cz7o4ygTarl01fU3dw57w" fill="rgb(247,247,247)" style="transform: none;"><g></g></g><g id="l2uKKu9Qiw8FDiVyn7sfY1J" fill="rgb(239,239,239)" style="transform: none;"><g></g></g><g id="l6y4sIZe7LxhnhwiwWhZ3UQ" fill="rgb(230,230,230)" style="transform: none;"><g></g></g><g id="l35r6fsNGPz79NSbvEu1vDh" fill="rgb(222,222,222)" style="transform: none;"><g></g></g><g id="l8wynllwFWpVNcB5ckkzJr" fill="rgb(214,214,214)" style="transform: none;"><g></g></g><g id="l2pmVyHuF0s4gtzOIhRbpme" fill="rgb(206,206,206)" style="transform: none;"><g><path id="pO3hm8xWz" d="M264 1926 c-50 -7 -105 -21 -122 -32 -33 -19 -44 -54 -18 -54 10 0 16 -13 18 -37 3 -33 7 -38 29 -41 15 -2 55 7 90 19 48 16 88 22 159 22 71 0 111 -6 159 -22 35 -12 75 -21 90 -19 25 3 26 6 29 70 l3 66 -33 11 c-43 13 -200 31 -263 30 -27 -1 -91 -7 -141 -13z"></path><path id="puoQe8at1" d="M150 1070 l0 -100 35 0 35 0 0 100 0 100 -35 0 -35 0 0 -100z"></path><path id="p1CmQDKnfw" d="M80 1020 c0 -57 1 -60 25 -60 24 0 25 3 25 60 0 57 -1 60 -25 60 -24 0 -25 -3 -25 -60z"></path><path id="pXXxZbrnS" d="M620 1015 l0 -55 35 0 35 0 0 55 0 55 -35 0 -35 0 0 -55z"></path><path id="p1HTIX4vfy" d="M80 583 c1 -60 7 -153 14 -208 12 -91 16 -102 43 -124 29 -23 32 -23 282 -25 l252 -1 30 28 c29 26 32 36 45 140 8 62 14 151 14 200 l0 87 -39 0 c-23 0 -48 -8 -64 -20 -63 -50 -116 -65 -232 -65 -123 0 -160 10 -235 61 -29 20 -62 34 -80 34 l-30 0 0 -107z"></path></g></g><g id="l6MxzqrGKqYXCVUiWFiFWJr" fill="rgb(197,197,197)" style="transform: none;"><g><path id="pkUePVdEG" d="M165 1906 c-58 -25 -88 -76 -45 -76 16 0 20 -7 20 -35 0 -31 3 -35 26 -35 14 0 55 8 90 17 48 13 64 22 64 35 0 23 -20 22 -87 -1 -29 -10 -55 -16 -58 -13 -3 3 -5 27 -5 53 0 43 3 48 28 57 15 6 20 11 12 11 -8 0 -29 -6 -45 -13z"></path><path id="pNt6td8Kg" d="M638 1909 c30 -9 32 -12 32 -58 0 -26 -2 -50 -5 -53 -3 -3 -29 3 -58 13 -66 23 -87 24 -87 2 0 -22 101 -56 151 -51 30 3 34 7 37 36 2 20 9 32 18 32 8 0 14 6 14 13 0 29 -76 78 -118 76 -9 0 -2 -5 16 -10z"></path><path id="plwbh2SzP" d="M348 1833 c-10 -2 -18 -11 -18 -19 0 -11 19 -14 90 -14 70 0 90 3 90 14 0 7 -10 16 -22 20 -26 6 -114 6 -140 -1z"></path><path id="pny0qvv9I" d="M80 1700 c0 -38 2 -40 30 -40 28 0 30 2 30 40 0 38 -2 40 -30 40 -28 0 -30 -2 -30 -40z"></path><path id="pEEOkwTEc" d="M150 1330 c0 -184 2 -220 14 -220 8 0 17 8 19 18 4 16 5 16 6 0 0 -10 8 -18 16 -18 13 0 15 31 15 220 l0 220 -35 0 -35 0 0 -220z"></path><path id="p6tuOTHzn" d="M623 1198 c3 -189 8 -355 12 -370 6 -24 13 -28 42 -28 l35 0 -6 48 c-4 26 -9 192 -12 370 l-6 322 -35 0 -35 0 5 -342z"></path><path id="p17vjOJruM" d="M80 985 l0 -125 25 0 c21 0 25 -5 25 -30 0 -27 3 -30 34 -30 39 0 40 4 52 143 6 75 5 87 -9 87 -8 0 -18 -8 -20 -17 -4 -17 -5 -17 -6 0 0 9 -8 17 -16 17 -15 0 -22 -29 -28 -110 -2 -25 -4 8 -5 73 l-2 117 -25 0 -25 0 0 -125z"></path><path id="pDjNyxANU" d="M678 680 c-7 -17 -21 -30 -30 -30 -13 0 -18 -8 -18 -25 0 -14 4 -25 8 -25 4 0 23 11 42 25 19 14 38 25 42 25 4 0 8 -25 8 -55 0 -42 3 -55 15 -55 12 0 15 16 15 85 l0 85 -34 0 c-29 0 -37 -5 -48 -30z"></path><path id="p12JOOjiOu" d="M80 611 c0 -74 3 -91 15 -91 12 0 15 15 15 71 l0 71 35 -26 c45 -35 108 -62 163 -71 37 -6 42 -4 42 12 0 14 -12 21 -53 31 -29 6 -60 12 -70 12 -9 0 -17 7 -17 15 0 8 -8 15 -18 15 -9 0 -22 10 -27 23 -7 16 -20 23 -47 25 l-38 3 0 -90z"></path><path id="p1DRbZaOSp" d="M518 603 c-20 -3 -28 -10 -28 -24 0 -22 3 -23 70 -8 31 7 50 16 50 25 0 14 -30 16 -92 7z"></path><path id="p4D845PYq" d="M725 498 c-3 -18 -10 -73 -15 -123 -13 -106 -30 -129 -90 -120 -19 2 -50 5 -67 5 -31 0 -33 2 -34 38 l-1 37 -12 -35 -13 -35 -74 -3 -75 -3 -11 38 -10 38 -2 -36 -1 -36 -52 -2 c-123 -7 -124 -5 -138 109 -15 122 -20 140 -37 140 -13 0 -14 -13 -8 -97 4 -54 12 -107 17 -118 14 -28 56 -63 103 -87 33 -17 44 -19 70 -9 41 14 249 14 290 0 26 -10 37 -8 70 9 45 22 87 59 103 88 5 10 13 67 17 127 6 94 5 107 -8 107 -10 0 -18 -12 -22 -32z"></path></g></g><g id="l4MgFNMcEqFSqh0uQxFAuWJ" fill="rgb(189,189,189)" style="transform: none;"><g><path id="pYAh4oELP" d="M140 1893 c-42 -29 -51 -45 -45 -85 3 -23 1 -38 -5 -38 -6 0 -10 -26 -10 -60 0 -52 2 -60 19 -60 27 0 31 -34 37 -348 7 -294 2 -382 -22 -382 -8 0 -14 -8 -15 -17 0 -15 -2 -15 -9 2 -6 14 -9 1 -12 -45 l-3 -65 -23 25 c-20 21 -22 22 -22 5 0 -10 12 -32 27 -47 26 -27 27 -33 24 -108 -2 -53 1 -80 8 -80 10 0 16 22 12 44 -1 5 1 16 4 24 5 13 8 12 24 -2 17 -16 19 -16 25 6 3 13 6 38 6 56 0 20 5 32 14 32 14 0 40 98 36 136 -1 10 -2 24 -1 29 1 6 2 172 3 370 0 251 -3 360 -11 363 -6 2 -11 10 -11 18 0 8 -9 14 -19 14 -14 0 -18 5 -14 20 3 11 12 20 19 20 8 0 14 9 14 20 0 13 7 20 20 20 15 0 20 7 20 25 0 22 -2 24 -26 15 -14 -6 -27 -10 -30 -10 -2 0 -4 21 -5 48 0 26 -3 41 -6 35 -2 -7 -12 -13 -21 -13 -13 1 -10 7 11 25 32 29 24 33 -13 8z m50 -653 c0 -154 -3 -280 -7 -280 -5 0 -7 126 -5 280 1 154 5 280 7 280 3 0 5 -126 5 -280z m-13 -352 c-2 -13 -4 -5 -4 17 -1 22 1 32 4 23 2 -10 2 -28 0 -40z"></path><path id="p17il2gsVa" d="M687 1885 c21 -19 24 -24 11 -25 -12 0 -18 -10 -20 -32 -2 -27 -7 -33 -25 -32 -18 0 -23 -5 -23 -23 0 -19 5 -23 30 -23 28 0 30 -2 30 -40 0 -30 -4 -40 -16 -40 -8 0 -21 -6 -28 -13 -26 -25 -30 -227 -5 -227 4 0 10 19 12 43 l4 42 1 -42 c2 -36 5 -43 22 -43 18 0 20 7 20 80 0 47 4 80 10 80 6 0 10 14 10 30 0 23 4 30 20 30 17 0 20 7 20 50 0 47 -2 50 -25 50 -20 0 -25 5 -25 25 0 18 5 25 20 25 34 0 25 43 -15 79 -20 17 -40 31 -46 31 -6 0 3 -11 18 -25z"></path><path id="pk2PXF3rr" d="M278 1823 c-33 -8 -20 -33 17 -33 28 0 35 4 35 20 0 20 -14 23 -52 13z"></path><path id="piHY8wt8i" d="M510 1810 c0 -16 7 -20 35 -20 40 0 49 24 13 34 -38 10 -48 7 -48 -14z"></path><path id="p1GsK6zZfe" d="M81 1098 c0 -39 3 -48 9 -33 7 17 9 17 9 3 1 -10 8 -18 16 -18 11 0 15 12 15 50 0 47 -2 50 -25 50 -24 0 -25 -3 -24 -52z"></path><path id="pN6W1PBqM" d="M708 993 l-2 -78 -3 73 c-3 63 -6 72 -23 72 -16 0 -20 -9 -23 -52 l-3 -53 -2 53 c-1 28 -6 52 -11 52 -12 0 -25 -126 -15 -142 5 -7 7 -22 5 -32 -1 -11 3 -46 9 -78 13 -57 13 -58 48 -58 l35 0 -7 80 -6 80 25 0 c25 0 25 1 25 80 0 79 0 80 -25 80 -24 0 -25 -2 -27 -77z m-41 -105 c-2 -13 -4 -5 -4 17 -1 22 1 32 4 23 2 -10 2 -28 0 -40z"></path><path id="pSjqHI7cz" d="M783 818 c-19 -19 -23 -20 -23 -6 0 11 -5 15 -15 12 -19 -8 -21 -74 -2 -74 20 0 69 56 65 74 -2 14 -6 13 -25 -6z"></path><path id="p6Y2wtmwb" d="M690 685 c0 -37 16 -47 28 -17 13 31 19 -79 10 -173 -17 -175 -14 -215 14 -187 9 9 14 74 16 212 l4 200 -36 0 c-35 0 -36 -1 -36 -35z"></path><path id="p19BtwbCcw" d="M610 630 c0 -5 -9 -10 -20 -10 -13 0 -20 -7 -20 -20 0 -26 22 -26 71 2 48 27 49 38 4 38 -19 0 -35 -4 -35 -10z"></path><path id="pzQRqec2d" d="M290 586 c0 -13 28 -26 58 -26 6 0 12 9 12 20 0 16 -7 20 -35 20 -23 0 -35 -5 -35 -14z"></path><path id="pFlf5xv4a" d="M81 488 c1 -112 10 -180 25 -185 26 -9 25 51 -2 245 -10 67 -24 29 -23 -60z"></path><path id="pAqJ2uyu2" d="M501 258 c-1 -16 -12 -18 -81 -18 -57 0 -80 4 -80 13 0 8 -2 9 -8 1 -6 -10 -46 -20 -104 -26 -36 -4 -17 -28 34 -43 69 -20 247 -20 316 0 51 15 70 39 35 43 -81 9 -102 15 -106 30 -4 15 -5 15 -6 0z"></path></g></g><g id="l1GBgtctF3JPaJNmgI2f1Em" fill="rgb(181,181,181)" style="transform: none;"><g><path id="pEVXgje1R" d="M681 1895 c14 -7 31 -25 37 -40 11 -24 11 -26 -10 -23 -19 2 -24 -2 -26 -25 -2 -20 -8 -27 -17 -23 -18 6 -28 -42 -29 -136 -1 -37 -4 -68 -8 -68 -5 0 -8 -18 -8 -40 0 -22 3 -40 8 -40 4 0 6 -112 4 -250 -2 -167 1 -250 8 -250 6 0 10 88 11 258 1 141 4 282 8 312 4 30 6 -69 3 -220 -5 -284 -1 -350 22 -350 11 0 15 55 19 283 5 289 13 357 44 357 14 0 15 13 10 102 -5 102 -6 103 -41 135 -20 18 -41 33 -48 33 -7 -1 -1 -7 13 -15z m59 -196 c0 -11 -4 -17 -10 -14 -5 3 -10 13 -10 21 0 8 5 14 10 14 6 0 10 -9 10 -21z"></path><path id="p8hh3W1Mm" d="M101 1858 c-8 -12 -15 -64 -19 -123 -5 -98 -4 -102 17 -108 13 -3 21 -13 21 -26 0 -11 8 -25 18 -30 9 -6 11 -11 5 -11 -8 0 -13 -15 -13 -40 0 -34 3 -40 21 -40 19 0 20 4 14 54 -4 30 -3 62 3 71 7 13 11 -1 17 -56 5 -41 10 -66 12 -56 3 9 9 17 14 17 5 0 9 16 9 35 0 19 -3 35 -7 35 -5 0 -8 49 -7 109 0 101 -1 108 -19 103 -12 -3 -20 2 -24 17 -4 14 -13 21 -30 21 -20 0 -22 3 -13 19 19 37 3 45 -19 9z m25 -134 c-3 -9 -6 -22 -6 -30 0 -8 -7 -14 -15 -14 -15 0 -21 40 -8 53 13 14 35 7 29 -9z"></path><path id="pIDCtnpGc" d="M263 1818 c-46 -10 -61 -38 -20 -38 58 0 97 13 97 31 0 21 -12 22 -77 7z"></path><path id="pcBwJ4rOV" d="M500 1811 c0 -18 39 -31 98 -31 44 0 23 28 -28 39 -67 14 -70 14 -70 -8z"></path><path id="p13osPcETp" d="M81 1138 c0 -39 3 -48 9 -33 7 17 9 17 9 3 1 -10 8 -18 16 -18 11 0 15 12 15 50 0 47 -2 50 -25 50 -24 0 -25 -3 -24 -52z"></path><path id="pRmV76pJu" d="M710 1075 c0 -51 3 -65 15 -65 8 0 15 8 16 18 0 14 2 14 9 -3 6 -14 9 1 9 48 1 65 0 67 -24 67 -24 0 -25 -2 -25 -65z"></path><path id="pJNCd7dmD" d="M710 979 c0 -6 -9 -8 -22 -4 -21 7 -21 6 -15 -62 4 -38 9 -85 12 -104 3 -22 0 -17 -10 16 -8 28 -15 64 -15 80 0 45 -11 75 -26 75 -17 0 -20 -76 -3 -82 7 -2 11 -26 10 -61 0 -31 3 -57 8 -57 5 0 11 -19 14 -42 2 -24 8 -51 12 -60 5 -14 2 -18 -14 -18 -12 0 -21 -6 -21 -15 0 -9 -9 -15 -25 -15 -20 0 -25 -5 -25 -24 0 -18 4 -23 18 -19 31 8 96 58 109 83 l12 24 6 -27 c12 -46 26 -29 24 28 -2 48 1 59 25 84 17 18 26 36 23 48 -4 17 -5 17 -6 0 0 -10 -7 -25 -15 -33 -16 -15 -27 -18 -25 -6 4 25 -4 41 -23 47 l-23 8 23 4 c20 4 22 9 21 76 0 50 -3 66 -9 52 -7 -17 -9 -17 -9 -2 -1 18 -31 25 -31 6z"></path><path id="p9yo5z3dW" d="M130 945 c0 -40 24 -49 34 -12 10 37 7 47 -14 47 -16 0 -20 -7 -20 -35z"></path><path id="pBDx6GtH7" d="M186 958 c-10 -38 -7 -48 14 -48 16 0 20 7 20 35 0 40 -24 49 -34 13z"></path><path id="p6phtXVrE" d="M120 885 c0 -8 -4 -15 -10 -15 -5 0 -10 -8 -11 -17 0 -15 -2 -15 -9 2 -6 15 -9 8 -9 -27 -1 -27 -5 -48 -11 -48 -5 0 -10 4 -10 9 0 5 -8 12 -17 16 -12 4 -9 -3 10 -22 20 -21 27 -40 28 -69 0 -40 17 -96 18 -63 1 9 8 32 16 50 l14 34 -2 -39 c-2 -35 2 -42 41 -73 52 -40 62 -41 62 -8 0 16 -6 25 -15 25 -8 0 -15 5 -15 10 0 6 -9 10 -21 10 -15 0 -19 5 -15 15 27 72 37 130 30 178 l-8 52 -9 -42 c-12 -54 -27 -56 -20 -3 5 36 3 40 -16 40 -12 0 -21 -6 -21 -15z"></path><path id="pACdnFSgH" d="M480 580 c0 -21 10 -24 48 -14 36 10 27 34 -13 34 -28 0 -35 -4 -35 -20z"></path><path id="pDzZ7SUBJ" d="M80 428 c1 -99 11 -138 37 -138 8 0 1 130 -12 208 -12 67 -25 29 -25 -70z"></path><path id="pG1TPtelA" d="M737 508 c-12 -47 -20 -208 -10 -208 26 0 33 28 33 127 0 96 -11 132 -23 81z"></path><path id="pEjpWWE0H" d="M160 244 c0 -9 24 -27 58 -42 54 -25 65 -27 202 -27 137 0 148 2 203 27 33 16 57 33 57 42 0 12 -12 8 -52 -16 -53 -31 -54 -31 -203 -33 l-150 -2 -57 33 c-44 25 -58 30 -58 18z"></path></g></g><g id="l7alDIxI0ATm9UYYWLkwm8o" fill="rgb(173,173,173)" style="transform: none;"><g><path id="pJ51LUgO3" d="M139 1891 c-13 -11 -22 -21 -19 -23 3 -2 16 6 29 19 29 28 22 30 -10 4z"></path><path id="phiRPehLr" d="M710 1872 c26 -39 49 -177 32 -194 -7 -7 -15 1 -26 26 -19 46 -30 46 -22 1 4 -19 3 -52 -3 -72 -5 -21 -12 -64 -15 -95 -6 -53 -5 -58 14 -58 16 0 20 7 20 35 0 19 -4 35 -10 35 -5 0 -10 5 -10 10 0 6 7 10 15 10 10 0 15 10 15 30 0 24 4 30 21 30 21 0 22 3 16 106 -5 104 -6 107 -37 138 l-33 31 23 -33z"></path><path id="pdP0FTXwx" d="M86 1794 c-4 -20 -5 -38 -2 -41 2 -3 8 11 12 31 3 21 4 39 1 42 -2 3 -8 -11 -11 -32z"></path><path id="pv5wH6RX3" d="M192 1792 c-31 -15 -33 -19 -28 -52 3 -19 11 -89 18 -155 7 -66 14 -108 16 -92 2 15 8 27 13 27 5 0 9 16 9 35 0 24 -5 35 -15 35 -8 0 -15 7 -15 15 0 8 5 15 10 15 6 0 10 16 10 35 0 26 -4 35 -17 36 -11 0 -13 3 -5 6 6 2 12 20 12 39 0 31 3 34 30 34 23 0 30 4 30 20 0 24 -22 25 -68 2z"></path><path id="p1BuahdUEf" d="M580 1790 c0 -16 7 -20 30 -20 27 0 30 -3 30 -34 0 -19 6 -37 13 -39 7 -3 5 -6 -5 -6 -14 -1 -18 -10 -18 -36 0 -19 5 -35 10 -35 6 0 10 -7 10 -15 0 -8 -7 -15 -15 -15 -10 0 -15 -11 -15 -35 0 -19 5 -35 10 -35 6 0 10 -10 10 -22 0 -49 9 -6 19 97 7 61 14 126 17 145 5 33 3 37 -30 53 -48 22 -66 22 -66 -3z"></path><path id="pc22N3ZH0" d="M120 1694 c-12 -36 -24 -36 -33 1 -3 11 -5 -4 -6 -32 -1 -47 1 -53 19 -53 13 0 20 -7 20 -20 0 -11 7 -20 15 -20 8 0 15 -7 15 -15 0 -8 -4 -15 -10 -15 -5 0 -10 -16 -10 -35 0 -29 4 -35 20 -35 19 0 20 4 15 53 -3 28 -11 78 -17 109 -6 31 -8 66 -5 78 9 35 -11 22 -23 -16z"></path><path id="pL78dCHMd" d="M610 1255 c0 -78 2 -85 20 -85 18 0 20 7 20 85 0 78 -2 85 -20 85 -18 0 -20 -7 -20 -85z"></path><path id="p12tRAVnVL" d="M674 1255 c0 -49 1 -71 3 -48 2 23 2 64 0 90 -2 26 -3 8 -3 -42z"></path><path id="p17EA6u0Gz" d="M81 1183 c0 -42 3 -52 9 -38 7 17 9 17 9 3 1 -10 8 -18 16 -18 12 0 15 13 15 55 0 52 -1 55 -25 55 -24 0 -25 -3 -24 -57z"></path><path id="pJ8iaNpOR" d="M710 1105 c0 -51 3 -65 15 -65 8 0 15 8 16 18 0 14 2 14 9 -3 6 -14 9 1 9 48 1 65 0 67 -24 67 -24 0 -25 -2 -25 -65z"></path><path id="pjtP64fwZ" d="M130 959 c0 -17 7 -37 15 -45 13 -13 15 -13 15 -1 0 8 3 29 6 46 6 27 4 31 -15 31 -17 0 -21 -6 -21 -31z"></path><path id="pSjQLgV27" d="M190 977 c0 -8 -3 -29 -6 -46 -6 -27 -4 -31 15 -31 17 0 21 6 21 31 0 17 -7 37 -15 45 -13 13 -15 13 -15 1z"></path><path id="pknqFfJu2" d="M640 947 c0 -20 4 -37 10 -37 5 0 7 14 3 33 -8 45 -13 47 -13 4z"></path><path id="pv7SXjt3x" d="M670 968 c0 -30 13 -58 26 -58 9 0 14 12 14 35 0 28 -4 35 -20 35 -11 0 -20 -6 -20 -12z"></path><path id="p12LYCAdl1" d="M697 903 c-16 -4 -17 -11 -11 -46 3 -23 15 -71 26 -107 10 -36 23 -78 27 -95 l8 -30 7 40 c13 80 10 125 -10 140 -17 13 -17 14 -1 15 14 0 17 9 16 48 0 35 -3 42 -9 27 -7 -17 -9 -17 -9 -2 -1 17 -10 19 -44 10z"></path><path id="pO9sQqdSN" d="M643 893 c-18 -6 -17 -73 1 -73 9 0 12 -8 8 -25 -2 -14 4 -57 14 -95 17 -65 19 -69 35 -54 16 14 16 20 3 65 -8 28 -23 81 -32 118 -11 45 -21 66 -29 64z"></path><path id="pr2bXQqsA" d="M140 853 c0 -43 5 -41 13 5 4 18 2 32 -3 32 -6 0 -10 -16 -10 -37z"></path><path id="pmwNWjbJ9" d="M176 868 c-10 -38 -7 -48 14 -48 16 0 20 7 20 35 0 40 -24 49 -34 13z"></path><path id="plZ3k3Cou" d="M79 815 c-6 -82 2 -235 12 -235 5 0 9 19 9 43 0 23 9 68 20 100 22 63 19 137 -6 137 -8 0 -14 -8 -15 -17 0 -15 -2 -15 -9 2 -6 15 -9 8 -11 -30z"></path><path id="po1Fe7oKW" d="M144 738 c-20 -68 -20 -74 -5 -92 15 -17 16 -17 19 18 2 20 7 36 13 36 10 0 11 52 1 88 -6 18 -11 8 -28 -50z"></path><path id="pCYz4LLct" d="M180 621 c0 -11 59 -39 99 -47 27 -6 31 -4 31 15 0 17 -6 21 -30 21 -16 0 -30 5 -30 10 0 6 -16 10 -35 10 -19 0 -35 -4 -35 -9z"></path><path id="p15cYmG7MG" d="M503 603 c-25 -3 -33 -9 -33 -25 0 -18 4 -19 38 -14 81 14 92 18 92 32 0 14 -24 16 -97 7z"></path><path id="pqqqytq9l" d="M80 436 c0 -90 3 -116 15 -126 24 -20 27 -7 9 35 -12 30 -14 56 -9 122 5 59 4 83 -4 83 -7 0 -11 -37 -11 -114z"></path><path id="ptN7MRRSb" d="M743 428 c1 -51 -4 -82 -16 -103 -19 -34 -4 -49 18 -19 16 21 21 194 6 194 -5 0 -9 -33 -8 -72z"></path><path id="p79mvmM3N" d="M220 210 c0 -10 49 -34 56 -27 2 2 -10 11 -26 21 -17 10 -30 13 -30 6z"></path><path id="p10c8WesNy" d="M585 200 c-34 -23 -31 -25 14 -9 17 6 31 15 31 20 0 14 -12 11 -45 -11z"></path></g></g><g id="l1dg7rwwVvFT52Q0PgHLFJw" fill="rgb(165,165,165)" style="transform: none;"><g><path id="pX4O8Le8i" d="M116 1874 c-26 -26 -33 -44 -18 -44 4 0 17 16 30 35 27 42 24 44 -12 9z"></path><path id="pua5HNggU" d="M298 1823 c-33 -8 -20 -33 17 -33 28 0 35 4 35 20 0 20 -14 23 -52 13z"></path><path id="phVpYTh9X" d="M490 1810 c0 -16 7 -20 35 -20 40 0 49 24 13 34 -38 10 -48 7 -48 -14z"></path><path id="pk4fy5Kug" d="M742 1810 c0 -14 3 -34 8 -45 l9 -20 -1 20 c0 11 -4 31 -8 45 l-8 25 0 -25z"></path><path id="pGF9iIp1F" d="M204 1796 c-39 -17 -46 -28 -38 -61 8 -33 34 -33 34 0 0 18 5 25 20 25 15 0 20 7 20 25 0 14 -1 25 -2 25 -2 -1 -17 -7 -34 -14z"></path><path id="p2pPuAqmu" d="M600 1784 c0 -17 5 -24 20 -24 15 0 20 -7 20 -25 0 -33 26 -33 34 1 8 31 -5 49 -45 63 -27 9 -29 8 -29 -15z"></path><path id="pthWTIir0" d="M698 1680 c-3 -30 -4 -58 -1 -62 2 -5 17 -8 34 -8 28 0 29 1 28 48 0 30 -3 40 -8 29 -10 -27 -25 -21 -37 16 -11 32 -11 32 -16 -23z"></path><path id="ppSE1B0BC" d="M122 1681 c-13 -43 -25 -45 -35 -6 -3 11 -5 -4 -6 -32 -1 -52 -1 -53 28 -53 36 0 43 17 33 85 l-7 50 -13 -44z"></path><path id="pleC8P4aI" d="M170 1688 c0 -30 13 -58 26 -58 9 0 14 12 14 35 0 28 -4 35 -20 35 -11 0 -20 -6 -20 -12z"></path><path id="pGIECq6lQ" d="M630 1665 c0 -40 24 -49 34 -12 10 37 7 47 -14 47 -16 0 -20 -7 -20 -35z"></path><path id="p11mBkXYsD" d="M643 1505 c0 -22 2 -30 4 -17 2 12 2 30 0 40 -3 9 -5 -1 -4 -23z"></path><path id="pynuDGttp" d="M676 1518 c-10 -38 -7 -48 14 -48 16 0 20 7 20 35 0 40 -24 49 -34 13z"></path><path id="pllCR959p" d="M130 1495 c0 -28 4 -35 20 -35 21 0 24 10 14 48 -10 36 -34 27 -34 -13z"></path><path id="p4L6zlncp" d="M193 1495 c0 -22 2 -30 4 -17 2 12 2 30 0 40 -3 9 -5 -1 -4 -23z"></path><path id="posaVRsIT" d="M610 1330 c0 -36 4 -50 14 -50 15 0 26 30 26 73 0 20 -5 27 -20 27 -17 0 -20 -7 -20 -50z"></path><path id="pLLBTRrku" d="M673 1330 c0 -30 2 -43 4 -27 2 15 2 39 0 55 -2 15 -4 2 -4 -28z"></path><path id="pA13YR7tN" d="M81 1223 c0 -36 3 -43 9 -28 7 17 9 17 9 3 1 -10 8 -18 16 -18 11 0 15 12 15 45 0 41 -2 45 -25 45 -23 0 -25 -3 -24 -47z"></path><path id="ppwx4baMZ" d="M610 1185 c0 -38 3 -45 20 -45 21 0 26 23 14 68 -11 41 -34 26 -34 -23z"></path><path id="pbik0ui0z" d="M673 1185 c0 -27 2 -38 4 -22 2 15 2 37 0 50 -2 12 -4 0 -4 -28z"></path><path id="p1AfcW0jJj" d="M710 1160 c0 -38 4 -50 15 -50 8 0 15 8 16 18 0 14 2 14 9 -3 6 -15 9 -6 9 33 1 49 0 52 -24 52 -23 0 -25 -3 -25 -50z"></path><path id="pyMQnZEXB" d="M130 965 c0 -19 5 -35 10 -35 6 0 10 -4 10 -10 0 -5 -7 -10 -15 -10 -8 0 -15 -8 -15 -19 0 -10 -6 -34 -14 -52 -11 -27 -15 -30 -19 -13 -2 10 -5 -6 -6 -38 -1 -36 3 -58 12 -62 10 -5 10 -7 0 -12 -10 -4 -13 -39 -12 -127 1 -101 3 -115 11 -82 5 22 7 66 3 98 -4 36 -2 63 4 71 14 17 58 196 65 269 6 52 5 57 -14 57 -16 0 -20 -7 -20 -35z"></path><path id="p1EvF0OA8Z" d="M183 915 c-6 -49 -15 -98 -18 -107 -4 -10 -3 -18 3 -18 6 0 13 23 17 50 5 33 12 50 21 50 9 0 14 12 14 35 0 19 -4 35 -9 35 -5 0 -11 10 -13 23 -2 12 -9 -18 -15 -68z"></path><path id="pEcGHpydB" d="M641 978 c-1 -10 -5 -18 -11 -18 -5 0 -10 -16 -10 -35 0 -24 5 -35 15 -35 9 0 15 -9 15 -25 0 -14 4 -25 8 -25 5 0 5 30 0 68 -9 71 -16 98 -17 70z"></path><path id="pxuWLGgSy" d="M675 943 c11 -81 16 -103 26 -103 5 0 9 -9 9 -20 0 -15 7 -20 25 -20 23 0 25 4 24 43 0 32 -2 37 -9 22 -7 -17 -9 -17 -9 -2 -1 9 -5 17 -11 17 -5 0 -10 7 -10 15 0 8 -8 15 -17 16 -11 0 -13 3 -5 6 6 2 12 20 12 39 0 28 -4 34 -21 34 -18 0 -20 -4 -14 -47z"></path><path id="pxFR7kwI0" d="M140 721 c-16 -31 -12 -51 10 -51 16 0 20 7 20 35 0 39 -14 46 -30 16z"></path><path id="pDycIGP0o" d="M738 645 c2 -25 8 -45 13 -45 5 0 9 20 9 45 0 29 -4 45 -13 45 -8 0 -11 -14 -9 -45z"></path><path id="pQcRXP576" d="M300 586 c0 -13 28 -26 58 -26 6 0 12 9 12 20 0 16 -7 20 -35 20 -23 0 -35 -5 -35 -14z"></path><path id="pI9Vx7giM" d="M741 518 c1 -74 17 -92 18 -20 1 35 -3 62 -9 62 -5 0 -10 -19 -9 -42z"></path><path id="p11wVVGKvo" d="M743 360 c-8 -32 -8 -40 3 -40 10 0 14 13 14 40 0 22 -1 40 -3 40 -2 0 -8 -18 -14 -40z"></path><path id="p18c5XJeoK" d="M80 357 c0 -26 4 -37 14 -37 12 0 13 6 4 33 -15 45 -18 46 -18 4z"></path><path id="pnqJ9D4og" d="M691 276 c-26 -27 -31 -36 -18 -36 23 0 59 37 55 56 -2 11 -13 5 -37 -20z"></path><path id="pRuXEmTxo" d="M210 211 c0 -11 31 -24 39 -16 3 3 -1 10 -9 15 -19 12 -30 12 -30 1z"></path><path id="pPiOULrKf" d="M602 213 c-6 -2 -10 -9 -7 -13 7 -11 35 -2 35 11 0 10 -8 10 -28 2z"></path></g></g><g id="l4MkyXM3FX7335KRV4ukIzJ" fill="rgb(156,156,156)" style="transform: none;"><g><path id="pi3r3VOIq" d="M248 1813 c-33 -8 -20 -33 17 -33 28 0 35 4 35 20 0 20 -14 23 -52 13z"></path><path id="pWKkGsjSq" d="M540 1800 c0 -16 7 -20 35 -20 40 0 49 24 13 34 -38 10 -48 7 -48 -14z"></path><path id="pFimVjWVb" d="M194 1789 c-28 -10 -34 -21 -27 -47 6 -24 33 -30 33 -8 0 8 5 16 11 18 6 2 9 13 7 25 -2 16 -7 19 -24 12z"></path><path id="pGxCk8Mhl" d="M620 1774 c0 -13 5 -24 10 -24 6 0 10 -7 10 -15 0 -23 27 -18 33 7 7 25 -5 44 -33 51 -16 4 -20 0 -20 -19z"></path><path id="pBpnlkEUd" d="M691 1629 c-7 -52 -15 -111 -18 -131 -4 -34 -2 -38 16 -38 17 0 21 6 21 35 0 19 -4 35 -10 35 -5 0 -10 7 -10 15 0 8 7 15 15 15 8 0 15 7 15 15 0 8 9 15 20 15 18 0 20 7 20 53 -1 52 -1 52 -14 22 -14 -31 -15 -30 -33 29 -7 24 -11 14 -22 -65z"></path><path id="p14kWk7fod" d="M128 1695 c-3 -11 -9 -33 -13 -49 -6 -30 -19 -26 -28 9 -3 11 -5 -3 -6 -31 -1 -51 -1 -52 33 -58 20 -4 37 -14 40 -24 7 -21 -2 66 -12 128 -6 33 -10 40 -14 25z"></path><path id="prPFzQ65N" d="M170 1698 c0 -30 13 -58 26 -58 9 0 14 12 14 35 0 28 -4 35 -20 35 -11 0 -20 -6 -20 -12z"></path><path id="pwSiFnT8V" d="M630 1675 c0 -40 24 -49 34 -12 10 37 7 47 -14 47 -16 0 -20 -7 -20 -35z"></path><path id="pMzdKZWzx" d="M181 1605 c-1 -43 9 -75 25 -75 9 0 14 12 14 35 0 24 -5 35 -14 35 -8 0 -17 8 -19 18 -3 9 -5 4 -6 -13z"></path><path id="phHXiaeh9" d="M651 1618 c0 -10 -8 -18 -16 -18 -10 0 -15 -11 -15 -35 0 -19 5 -35 10 -35 6 0 11 -17 11 -37 1 -23 5 -7 10 37 5 41 7 82 5 90 -3 11 -4 11 -5 -2z"></path><path id="p17Y65alSN" d="M130 1485 c0 -28 4 -35 20 -35 21 0 24 10 14 48 -10 36 -34 27 -34 -13z"></path><path id="p1FZ2yBCXE" d="M193 1485 c0 -22 2 -30 4 -17 2 12 2 30 0 40 -3 9 -5 -1 -4 -23z"></path><path id="p10LBtmuis" d="M610 1365 c0 -49 23 -64 34 -22 12 44 7 67 -14 67 -17 0 -20 -7 -20 -45z"></path><path id="p7t6FgQ3J" d="M673 1365 c0 -27 2 -38 4 -22 2 15 2 37 0 50 -2 12 -4 0 -4 -28z"></path><path id="pchqVluup" d="M164 1250 c0 -52 1 -74 3 -47 2 26 2 68 0 95 -2 26 -3 4 -3 -48z"></path><path id="pfNatX8kp" d="M190 1250 c0 -83 1 -90 20 -90 19 0 20 7 20 90 0 83 -1 90 -20 90 -19 0 -20 -7 -20 -90z"></path><path id="pxoN2piED" d="M81 1258 c0 -39 3 -48 9 -33 7 17 9 17 9 3 1 -10 8 -18 16 -18 11 0 15 12 15 50 0 47 -2 50 -25 50 -24 0 -25 -3 -24 -52z"></path><path id="pcn4SrXEW" d="M710 1200 c0 -38 4 -50 15 -50 8 0 15 8 16 18 0 14 2 14 9 -3 6 -15 9 -6 9 33 1 49 0 52 -24 52 -23 0 -25 -3 -25 -50z"></path><path id="pqRNUb8SB" d="M610 1155 c0 -38 3 -45 20 -45 21 0 26 23 14 68 -11 41 -34 26 -34 -23z"></path><path id="pqUo5eoI4" d="M673 1155 c0 -27 2 -38 4 -22 2 15 2 37 0 50 -2 12 -4 0 -4 -28z"></path><path id="pjgGOIqJe" d="M130 975 c0 -19 5 -35 11 -35 8 0 9 -18 6 -57 -5 -43 -4 -49 2 -23 5 19 11 61 15 93 6 52 5 57 -14 57 -16 0 -20 -7 -20 -35z"></path><path id="pwRmJjdvI" d="M187 944 c-4 -39 -10 -85 -13 -102 -6 -27 -4 -32 14 -32 17 0 21 9 27 66 4 42 3 69 -3 73 -6 3 -12 20 -14 36 -2 18 -6 2 -11 -41z"></path><path id="pfPr227hy" d="M641 978 c-1 -16 -6 -28 -12 -28 -13 0 -7 -77 13 -167 8 -41 16 -53 30 -53 21 0 22 10 7 65 -7 22 -17 78 -24 125 -7 47 -13 73 -14 58z"></path><path id="poZMxh2fo" d="M676 948 c7 -64 34 -201 40 -207 2 -2 4 5 4 17 0 15 6 22 20 22 17 0 20 6 19 43 0 32 -2 37 -9 22 -7 -17 -9 -17 -9 -2 -1 10 -9 17 -20 17 -10 0 -22 7 -25 16 -9 24 -7 54 4 54 6 0 10 16 10 35 0 29 -4 35 -20 35 -19 0 -20 -4 -14 -52z"></path><path id="phkV4gg5t" d="M120 770 c0 -23 -4 -30 -20 -30 -17 0 -20 -6 -19 -37 0 -31 2 -34 9 -18 6 14 9 15 10 5 1 -8 7 1 14 20 22 59 27 90 16 90 -5 0 -10 -13 -10 -30z"></path><path id="pDGXaM5Mo" d="M156 778 c-10 -38 -7 -48 14 -48 16 0 20 7 20 35 0 40 -24 49 -34 13z"></path><path id="pCanojsv5" d="M720 725 c0 -3 6 -20 14 -38 8 -20 12 -54 9 -83 -2 -27 0 -69 5 -94 8 -37 10 -22 11 88 1 126 0 132 -19 132 -11 0 -20 -2 -20 -5z"></path><path id="p7ZNnWqot" d="M560 600 c0 -22 20 -26 51 -10 30 16 23 30 -16 30 -28 0 -35 -4 -35 -20z"></path><path id="p1iMvrWmQ" d="M82 520 c0 -19 2 -27 5 -17 2 9 2 25 0 35 -3 9 -5 1 -5 -18z"></path><path id="p4YCwz70Z" d="M81 355 c0 -38 48 -109 77 -113 12 -2 22 -7 22 -12 0 -5 14 -16 30 -25 17 -9 30 -11 30 -6 0 6 -13 17 -28 25 -36 19 -100 89 -118 130 l-13 31 0 -30z"></path><path id="pr0zArEqG" d="M738 341 c-10 -20 -27 -47 -38 -58 -22 -24 -14 -38 10 -20 27 21 51 67 48 91 -3 21 -5 20 -20 -13z"></path><path id="pEWxWoN5f" d="M628 224 c-38 -20 -36 -38 2 -19 17 9 30 20 30 25 0 12 1 12 -32 -6z"></path></g></g><g id="lclHkxZRIJLNrpLbgRw04c" fill="rgb(148,148,148)" style="transform: none;"><g><path id="pzGYjyMt4" d="M308 1823 c-33 -8 -20 -33 17 -33 28 0 35 4 35 20 0 20 -14 23 -52 13z"></path><path id="p3dnERVXm" d="M480 1810 c0 -16 7 -20 35 -20 40 0 49 24 13 34 -38 10 -48 7 -48 -14z"></path><path id="pUH8Srl7m" d="M570 1790 c0 -16 7 -20 35 -20 28 0 35 -4 35 -20 0 -26 26 -26 33 0 4 16 -3 25 -33 40 -50 25 -70 25 -70 0z"></path><path id="p1CWjYkMTQ" d="M83 1705 c0 -27 2 -38 4 -22 2 15 2 37 0 50 -2 12 -4 0 -4 -28z"></path><path id="pKgpd0Y8a" d="M696 1649 c-10 -52 2 -79 35 -79 28 0 29 1 28 53 -1 28 -3 43 -6 32 -9 -37 -23 -40 -29 -7 -8 41 -20 41 -28 1z"></path><path id="p65Dr0fvd" d="M113 1633 c-10 -38 -10 -38 -21 -13 -10 23 -11 21 -11 -22 -1 -46 0 -48 28 -48 27 0 29 3 32 43 7 81 -10 105 -28 40z"></path><path id="p1FpQYfdB9" d="M180 1598 c0 -30 13 -58 26 -58 9 0 14 12 14 35 0 28 -4 35 -20 35 -11 0 -20 -6 -20 -12z"></path><path id="pnjc3ZO6V" d="M620 1575 c0 -40 24 -49 34 -12 10 37 7 47 -14 47 -16 0 -20 -7 -20 -35z"></path><path id="pPVWFRpXj" d="M643 1485 c0 -22 2 -30 4 -17 2 12 2 30 0 40 -3 9 -5 -1 -4 -23z"></path><path id="pdHSjPPAR" d="M676 1498 c-10 -38 -7 -48 14 -48 16 0 20 7 20 35 0 40 -24 49 -34 13z"></path><path id="pB9ZjDVhq" d="M130 1475 c0 -28 4 -35 20 -35 21 0 24 10 14 48 -10 36 -34 27 -34 -13z"></path><path id="ppKFyUzap" d="M193 1475 c0 -22 2 -30 4 -17 2 12 2 30 0 40 -3 9 -5 -1 -4 -23z"></path><path id="pFTDi5Izl" d="M610 1390 c0 -45 23 -57 34 -17 11 41 7 57 -14 57 -17 0 -20 -7 -20 -40z"></path><path id="ppnSqGzFV" d="M673 1390 c0 -25 2 -35 4 -22 2 12 2 32 0 45 -2 12 -4 2 -4 -23z"></path><path id="pT7Z4ViZJ" d="M81 1313 c0 -47 3 -62 9 -48 7 17 9 17 9 3 1 -10 8 -18 16 -18 12 0 15 14 15 65 0 63 -1 65 -25 65 -24 0 -25 -2 -24 -67z"></path><path id="psHOKMg5j" d="M163 1330 c0 -30 2 -43 4 -27 2 15 2 39 0 55 -2 15 -4 2 -4 -28z"></path><path id="pdKZLfvPz" d="M190 1353 c0 -43 11 -73 26 -73 10 0 14 14 14 50 0 43 -3 50 -20 50 -15 0 -20 -7 -20 -27z"></path><path id="p7hfFRpzE" d="M710 1240 c0 -38 4 -50 15 -50 8 0 15 8 16 18 0 14 2 14 9 -3 6 -15 9 -6 9 33 1 49 0 52 -24 52 -23 0 -25 -3 -25 -50z"></path><path id="pL2VloTJA" d="M84 1050 c0 -96 2 -136 3 -87 2 48 2 126 0 175 -1 48 -3 8 -3 -88z"></path><path id="pQexlNKEW" d="M100 1050 c0 -107 4 -170 10 -170 6 0 10 -7 10 -15 0 -24 27 -18 34 8 7 26 7 77 -1 60 -2 -7 -11 -13 -19 -13 -11 0 -14 27 -14 150 0 93 -4 150 -10 150 -6 0 -10 -63 -10 -170z"></path><path id="p15whfdlHa" d="M163 1180 c0 -25 2 -35 4 -22 2 12 2 32 0 45 -2 12 -4 2 -4 -23z"></path><path id="pxu47cYbh" d="M196 1198 c-11 -42 -7 -58 14 -58 17 0 20 7 20 40 0 45 -23 57 -34 18z"></path><path id="pqUMuGREd" d="M610 1130 c0 -33 3 -40 20 -40 21 0 25 16 14 58 -11 39 -34 27 -34 -18z"></path><path id="pfohhn1vD" d="M673 1130 c0 -25 2 -35 4 -22 2 12 2 32 0 45 -2 12 -4 2 -4 -23z"></path><path id="pGGsILtH4" d="M640 977 c0 -20 -4 -37 -10 -37 -5 0 -10 -16 -10 -35 0 -28 4 -35 20 -35 18 0 19 5 13 68 -7 75 -13 94 -13 39z"></path><path id="p9y23UYqO" d="M677 948 c6 -70 13 -89 13 -40 0 18 5 32 10 32 6 0 10 16 10 35 0 28 -4 35 -20 35 -18 0 -19 -5 -13 -62z"></path><path id="pDnJV8dEU" d="M186 918 c-7 -27 -7 -78 1 -60 2 6 11 12 19 12 9 0 14 11 14 35 0 40 -24 49 -34 13z"></path><path id="pM5564S65" d="M130 810 c0 -16 2 -30 4 -30 2 0 6 14 8 30 3 17 1 30 -4 30 -4 0 -8 -13 -8 -30z"></path><path id="pwwxqoBYY" d="M166 818 c-10 -38 -7 -48 14 -48 16 0 20 7 20 35 0 40 -24 49 -34 13z"></path><path id="pPi9J9CNw" d="M711 793 c0 -47 26 -133 29 -103 1 8 6 2 10 -15 l8 -30 1 37 c0 21 -4 38 -11 41 -10 4 -10 6 0 6 8 1 12 19 11 59 0 41 -3 51 -9 37 -7 -17 -9 -17 -9 -2 -1 9 -8 17 -16 17 -11 0 -15 -12 -14 -47z"></path><path id="pJmcHLlTh" d="M81 783 c-1 -37 2 -43 19 -43 17 0 20 7 20 40 0 48 -19 54 -21 8 l-2 -33 -7 35 -7 35 -2 -42z"></path><path id="pB0fRBiJD" d="M93 723 c-8 -3 -12 -20 -12 -41 l2 -37 7 35 c4 21 8 27 9 15 l2 -20 9 20 c15 35 12 40 -17 28z"></path><path id="pMAiBSbXm" d="M136 708 c-11 -43 -7 -56 14 -51 15 4 20 14 20 39 0 39 -24 47 -34 12z"></path><path id="p12pOkNE4r" d="M670 701 c0 -16 -5 -31 -11 -33 -6 -2 -9 -16 -7 -31 l3 -27 29 23 c26 21 28 28 22 60 -9 46 -36 51 -36 8z"></path><path id="p10t6YHpKa" d="M210 610 c0 -12 33 -30 54 -30 9 0 16 9 16 20 0 16 -7 20 -35 20 -19 0 -35 -4 -35 -10z"></path><path id="p114xuCQBP" d="M83 560 c0 -25 2 -35 4 -22 2 12 2 32 0 45 -2 12 -4 2 -4 -23z"></path><path id="pKtopGsT5" d="M310 586 c0 -13 28 -26 58 -26 6 0 12 9 12 20 0 16 -7 20 -35 20 -23 0 -35 -5 -35 -14z"></path><path id="p13KYouio0" d="M460 580 c0 -21 10 -24 48 -14 36 10 27 34 -13 34 -28 0 -35 -4 -35 -20z"></path><path id="p14k7wHKhA" d="M752 530 c0 -19 2 -27 5 -17 2 9 2 25 0 35 -3 9 -5 1 -5 -18z"></path><path id="poddZYAmd" d="M100 308 c1 -23 44 -66 93 -92 26 -14 47 -21 47 -16 0 5 -12 16 -27 24 -16 8 -47 33 -70 56 -24 23 -43 36 -43 28z"></path><path id="pttmmWlSW" d="M695 278 c-22 -22 -52 -46 -67 -54 -16 -8 -28 -19 -28 -24 0 -16 94 40 118 71 37 46 21 51 -23 7z"></path></g></g><g id="l5Dl09sGEwsPFdKPpjX2uHE" fill="rgb(140,140,140)" style="transform: none;"><g><path id="pqGYKPd4y" d="M110 1868 c-11 -12 -20 -31 -20 -42 0 -22 0 -23 28 27 24 42 22 47 -8 15z"></path><path id="p6kZ99Xq0" d="M720 1864 c1 -5 7 -20 15 -34 13 -24 14 -24 15 -4 0 12 -7 27 -15 34 -8 7 -15 9 -15 4z"></path><path id="p14EfmuL9K" d="M280 1816 c-60 -13 -80 -22 -80 -37 0 -12 28 -11 105 3 51 10 65 16 65 30 0 21 -12 21 -90 4z"></path><path id="pNVCRRoQK" d="M470 1812 c0 -15 9 -21 46 -26 69 -9 84 -8 84 8 0 14 -11 18 -92 32 -33 5 -38 4 -38 -14z"></path><path id="pa6em8jAx" d="M83 1755 c0 -22 2 -30 4 -17 2 12 2 30 0 40 -3 9 -5 -1 -4 -23z"></path><path id="pFe61WfWv" d="M752 1703 c-2 -93 -15 -128 -27 -73 -12 53 -26 38 -40 -42 -7 -36 -6 -37 29 -44 21 -3 39 -4 42 -2 2 3 3 61 1 129 -2 110 -3 114 -5 32z"></path><path id="pxERdrt6H" d="M170 1708 c0 -30 13 -58 26 -58 9 0 14 12 14 35 0 28 -4 35 -20 35 -11 0 -20 -6 -20 -12z"></path><path id="p55KEaPVb" d="M630 1685 c0 -40 24 -49 34 -12 10 37 7 47 -14 47 -16 0 -20 -7 -20 -35z"></path><path id="p1BSQoRnZu" d="M84 1440 c0 -152 2 -221 6 -170 l6 85 2 -97 c1 -58 6 -98 12 -98 6 0 10 24 10 53 0 28 3 89 7 135 5 71 8 82 24 82 11 0 19 6 19 13 0 29 -13 57 -26 57 -19 0 -18 39 2 47 12 4 14 14 9 42 -14 83 -31 96 -41 31 -9 -58 -22 -49 -27 18 -2 31 -3 -58 -3 -198z"></path><path id="p1HvEkrQQ5" d="M642 1478 c-1 -26 -7 -38 -17 -38 -10 0 -15 -11 -15 -35 0 -24 5 -35 15 -35 17 0 28 50 22 105 l-4 40 -1 -37z"></path><path id="pAnqMwbHL" d="M676 1488 c-3 -13 -5 -45 -4 -73 1 -43 2 -45 5 -12 3 24 9 37 19 37 9 0 14 11 14 35 0 40 -24 49 -34 13z"></path><path id="p1CYAOId38" d="M193 1465 c0 -22 2 -30 4 -17 2 12 2 30 0 40 -3 9 -5 -1 -4 -23z"></path><path id="pPPZNlpRN" d="M163 1365 c0 -27 2 -38 4 -22 2 15 2 37 0 50 -2 12 -4 0 -4 -28z"></path><path id="pm3LzqXIb" d="M190 1388 c0 -39 12 -68 26 -68 10 0 14 13 14 45 0 38 -3 45 -20 45 -14 0 -20 -7 -20 -22z"></path><path id="pUeZ6Wu0K" d="M717 1135 l6 -215 -23 0 c-20 0 -22 -4 -16 -31 3 -17 6 -38 6 -46 0 -9 8 -5 25 11 25 25 25 27 27 218 l2 193 6 -200 6 -200 2 243 2 242 -24 0 -25 0 6 -215z"></path><path id="pw9JZ4nGH" d="M163 1155 c0 -27 2 -38 4 -22 2 15 2 37 0 50 -2 12 -4 0 -4 -28z"></path><path id="pYDPyqY4W" d="M196 1178 c-12 -45 -7 -68 14 -68 17 0 20 7 20 45 0 49 -23 64 -34 23z"></path><path id="pJcJGlJ4q" d="M610 1110 c0 -33 3 -40 20 -40 21 0 25 16 14 58 -11 39 -34 27 -34 -18z"></path><path id="pCabYbQFd" d="M673 1110 c0 -25 2 -35 4 -22 2 12 2 32 0 45 -2 12 -4 2 -4 -23z"></path><path id="p5bag8BGe" d="M130 985 c0 -40 24 -49 34 -12 10 37 7 47 -14 47 -16 0 -20 -7 -20 -35z"></path><path id="pPZ1UaYKK" d="M193 985 c0 -22 2 -30 4 -17 2 12 2 30 0 40 -3 9 -5 -1 -4 -23z"></path><path id="pA7z23CBZ" d="M643 985 c0 -22 2 -30 4 -17 2 12 2 30 0 40 -3 9 -5 -1 -4 -23z"></path><path id="pxoohxkNl" d="M670 1008 c0 -30 13 -58 26 -58 9 0 14 12 14 35 0 28 -4 35 -20 35 -11 0 -20 -6 -20 -12z"></path><path id="p13DPid9Vu" d="M100 873 c0 -49 -3 -105 -6 -125 -5 -30 -3 -38 9 -38 19 0 46 102 28 108 -7 2 -11 30 -11 73 0 39 -4 69 -10 69 -6 0 -10 -36 -10 -87z"></path><path id="p5lL3tMwM" d="M83 860 c0 -30 2 -43 4 -27 2 15 2 39 0 55 -2 15 -4 2 -4 -28z"></path><path id="p106ws5ZIU" d="M651 888 c-1 -10 -5 -18 -11 -18 -5 0 -10 -16 -10 -35 0 -28 4 -35 20 -35 19 0 20 -4 14 -55 -5 -36 -3 -55 4 -55 6 0 17 -3 26 -6 14 -5 14 -1 0 48 -9 29 -22 80 -29 113 -8 33 -14 52 -14 43z"></path><path id="p2gb1do2c" d="M166 807 c-8 -35 -18 -71 -22 -80 -3 -10 -1 -17 4 -17 6 0 14 20 18 45 5 35 10 45 25 45 15 0 19 7 19 35 0 59 -26 43 -44 -28z"></path><path id="pUxMCatzX" d="M700 807 c0 -29 31 -117 40 -112 5 3 11 -3 13 -12 3 -10 5 18 5 62 -1 60 -3 71 -8 45 l-7 -35 -2 33 c-1 25 -5 32 -21 32 -11 0 -20 -6 -20 -13z"></path><path id="ptivN3bPl" d="M83 630 c0 -36 2 -50 4 -32 2 17 2 47 0 65 -2 17 -4 3 -4 -33z"></path><path id="prWEte0SL" d="M130 661 c0 -5 14 -19 30 -31 l30 -21 0 30 c0 28 -3 31 -30 31 -16 0 -30 -4 -30 -9z"></path><path id="p1GKlTsD31" d="M753 575 c0 -27 2 -38 4 -22 2 15 2 37 0 50 -2 12 -4 0 -4 -28z"></path><path id="prGhBj5vx" d="M80 344 c0 -22 88 -129 98 -119 3 2 10 1 16 -4 12 -9 46 -22 46 -17 0 1 -23 17 -51 35 -29 19 -63 53 -80 80 -22 35 -29 41 -29 25z"></path><path id="pO6VzNfhj" d="M736 329 c-20 -34 -14 -53 9 -23 12 16 21 54 12 54 -1 0 -11 -14 -21 -31z"></path><path id="pT3FzYWQQ" d="M663 248 c-24 -17 -41 -33 -39 -35 7 -7 60 24 80 46 28 30 8 25 -41 -11z"></path></g></g><g id="l41jfDsVr4A94JpIcA2nmjB" fill="rgb(132,132,132)" style="transform: none;"><g><path id="pFGgVsVCr" d="M721 1858 c13 -21 26 -32 28 -27 2 6 -9 23 -24 38 l-27 26 23 -37z"></path><path id="p14WuZ6xhi" d="M101 1856 c-8 -13 -12 -28 -10 -34 2 -5 11 6 20 24 19 38 9 47 -10 10z"></path><path id="p14k1e4p0E" d="M283 1815 c-67 -15 -103 -30 -103 -45 0 -15 59 -12 105 5 22 8 55 14 73 15 25 0 32 4 32 20 0 24 -17 25 -107 5z"></path><path id="p17BAI1zHG" d="M450 1811 c0 -16 6 -21 28 -21 16 0 51 -7 78 -15 61 -18 107 -20 102 -2 -5 15 -87 43 -155 52 -49 6 -53 5 -53 -14z"></path><path id="pJQO8IEyJ" d="M170 1718 c0 -30 13 -58 26 -58 9 0 14 12 14 35 0 28 -4 35 -20 35 -11 0 -20 -6 -20 -12z"></path><path id="p14iRjQOO3" d="M630 1695 c0 -40 24 -49 34 -12 10 37 7 47 -14 47 -16 0 -20 -7 -20 -35z"></path><path id="pmLqH7FYA" d="M126 1660 c-7 -20 -25 -102 -26 -117 0 -7 8 -13 19 -13 14 0 19 10 24 50 6 52 -6 109 -17 80z"></path><path id="pH1WwSVhC" d="M750 1599 c0 -17 -4 -28 -10 -24 -5 3 -10 15 -10 25 0 14 -5 18 -16 13 -13 -5 -15 -16 -10 -60 5 -42 3 -53 -8 -53 -17 0 -26 -32 -24 -85 1 -30 2 -33 5 -12 8 48 33 33 33 -20 0 -79 12 -183 21 -183 5 0 10 28 10 63 2 57 2 59 9 22 4 -23 8 40 9 153 0 105 -1 192 -4 192 -3 0 -5 -14 -5 -31z"></path><path id="p10ibnWZNk" d="M180 1608 c0 -30 13 -58 26 -58 9 0 14 12 14 35 0 28 -4 35 -20 35 -11 0 -20 -6 -20 -12z"></path><path id="p540q9MTK" d="M620 1585 c0 -40 24 -49 34 -12 10 37 7 47 -14 47 -16 0 -20 -7 -20 -35z"></path><path id="pubKikPFW" d="M641 1483 c0 -13 -8 -23 -16 -23 -11 0 -15 -11 -15 -40 0 -28 4 -40 15 -40 16 0 29 52 22 96 -3 22 -4 23 -6 7z"></path><path id="p19x79nHAV" d="M130 1455 c0 -24 5 -35 14 -35 10 0 16 -13 19 -37 3 -33 4 -31 5 12 2 62 -6 95 -24 95 -9 0 -14 -12 -14 -35z"></path><path id="p3oyA3bug" d="M192 1445 c-2 -62 6 -95 24 -95 10 0 14 13 14 40 0 28 -4 40 -14 40 -9 0 -16 13 -19 33 -3 23 -4 18 -5 -18z"></path><path id="pu4DBeeY0" d="M163 1125 c0 -27 2 -38 4 -22 2 15 2 37 0 50 -2 12 -4 0 -4 -28z"></path><path id="pFAdTh8gN" d="M196 1148 c-12 -45 -7 -68 14 -68 17 0 20 7 20 45 0 49 -23 64 -34 23z"></path><path id="pZH7sH8qS" d="M610 1090 c0 -33 3 -40 20 -40 21 0 25 16 14 58 -11 39 -34 27 -34 -18z"></path><path id="p25IVMVfG" d="M673 1090 c0 -25 2 -35 4 -22 2 12 2 32 0 45 -2 12 -4 2 -4 -23z"></path><path id="prYns5jTK" d="M130 1000 c0 -45 23 -57 34 -17 11 41 7 57 -14 57 -17 0 -20 -7 -20 -40z"></path><path id="pXDjZgz1H" d="M193 1000 c0 -25 2 -35 4 -22 2 12 2 32 0 45 -2 12 -4 2 -4 -23z"></path><path id="pL6jYcMgN" d="M643 995 c0 -22 2 -30 4 -17 2 12 2 30 0 40 -3 9 -5 -1 -4 -23z"></path><path id="p17Tc0UytW" d="M670 1018 c0 -30 13 -58 26 -58 9 0 14 12 14 35 0 28 -4 35 -20 35 -11 0 -20 -6 -20 -12z"></path><path id="pXWCQjTWB" d="M720 865 c0 -50 4 -85 10 -85 6 0 10 35 10 85 0 50 -4 85 -10 85 -6 0 -10 -35 -10 -85z"></path><path id="p1A8g0bBjA" d="M186 908 c-10 -38 -7 -48 14 -48 16 0 20 7 20 35 0 40 -24 49 -34 13z"></path><path id="p57wYgq9l" d="M620 895 c0 -28 4 -35 20 -35 21 0 24 10 14 48 -10 36 -34 27 -34 -13z"></path><path id="pxyF2P5SP" d="M753 845 c0 -33 2 -45 4 -27 2 18 2 45 0 60 -2 15 -4 0 -4 -33z"></path><path id="plvpSiepi" d="M100 814 c0 -34 -4 -53 -10 -49 -6 4 -9 -15 -9 -52 1 -32 4 -45 6 -29 3 21 7 26 13 16 10 -16 34 64 26 85 -3 8 -1 15 4 17 5 2 12 18 16 36 6 30 5 32 -20 32 -25 0 -26 -2 -26 -56z"></path><path id="pD2RQYlkk" d="M142 719 c-9 -34 -8 -40 5 -35 8 3 19 6 24 6 5 0 9 16 9 35 0 49 -25 46 -38 -6z"></path><path id="pjGF1rDJn" d="M721 738 c0 -7 4 -22 9 -33 6 -15 9 -16 11 -5 1 8 5 -14 9 -50 l7 -65 1 83 c2 76 1 82 -18 82 -11 0 -20 -6 -19 -12z"></path><path id="pFQXuJlUD" d="M620 625 c0 -31 11 -32 47 0 l28 24 -37 1 c-34 0 -38 -3 -38 -25z"></path><path id="paGH7ea1d" d="M488 603 c-30 -3 -38 -8 -38 -24 0 -19 4 -20 43 -14 83 12 97 17 97 31 0 14 -19 15 -102 7z"></path><path id="pCvXWb5su" d="M727 310 c-15 -21 -50 -53 -77 -71 -53 -34 -61 -42 -32 -32 56 21 149 108 140 132 -2 6 -15 -8 -31 -29z"></path><path id="p1Fmd1dpec" d="M80 332 c0 -14 90 -105 96 -99 3 3 -18 28 -45 57 -28 29 -51 48 -51 42z"></path></g></g><g id="lS8kjdPearE6N4UZIK4vpw" fill="rgb(123,123,123)" style="transform: none;"><g><path id="pDRQJFBIG" d="M122 1880 c-12 -12 -22 -26 -22 -32 0 -6 1 -9 3 -7 1 2 13 16 26 32 29 32 24 36 -7 7z"></path><path id="pbvJThS1m" d="M707 1880 c12 -14 26 -36 32 -50 9 -22 10 -23 10 -4 1 11 -14 33 -31 50 -25 22 -27 23 -11 4z"></path><path id="pXXBKIfTq" d="M335 1824 c-66 -10 -165 -46 -165 -60 0 -18 31 -18 100 1 71 20 229 20 300 0 70 -19 100 -19 100 0 0 33 -232 74 -335 59z"></path><path id="psMYQkdZe" d="M630 1705 c0 -40 24 -49 34 -12 10 37 7 47 -14 47 -16 0 -20 -7 -20 -35z"></path><path id="pnyhuHXy3" d="M700 1661 c0 -5 -3 -16 -6 -25 -4 -11 -1 -16 10 -16 18 0 22 35 6 45 -5 3 -10 2 -10 -4z"></path><path id="pWryjJIpS" d="M120 1640 c0 -11 6 -20 14 -20 9 0 12 7 9 20 -3 11 -9 20 -14 20 -5 0 -9 -9 -9 -20z"></path><path id="p17SpkEs0x" d="M180 1618 c0 -30 13 -58 26 -58 9 0 14 12 14 35 0 28 -4 35 -20 35 -11 0 -20 -6 -20 -12z"></path><path id="p7MzmD1DM" d="M620 1595 c0 -40 24 -49 34 -12 10 37 7 47 -14 47 -16 0 -20 -7 -20 -35z"></path><path id="pLKGAxLyB" d="M111 1579 c-15 -44 -14 -59 5 -59 28 0 46 28 39 60 -9 39 -30 38 -44 -1z"></path><path id="p1GfE2SRaJ" d="M685 1579 c-8 -33 4 -49 38 -49 19 0 22 17 7 54 -13 36 -37 33 -45 -5z"></path><path id="pXF5XCfq1" d="M641 1483 c-1 -7 -8 -13 -16 -13 -10 0 -15 -11 -15 -35 0 -47 27 -48 36 -1 3 19 4 41 1 48 -4 10 -6 10 -6 1z"></path><path id="pqIJVHXbH" d="M676 1468 c-12 -46 -7 -66 14 -61 16 4 20 14 20 44 0 44 -23 55 -34 17z"></path><path id="p112IhM8G5" d="M130 1435 c0 -32 4 -45 14 -45 8 0 17 -6 19 -12 8 -18 8 53 1 80 -11 41 -34 26 -34 -23z"></path><path id="pbXye87l9" d="M191 1450 c-1 -48 9 -80 25 -80 10 0 14 13 14 40 0 28 -4 40 -14 40 -8 0 -17 8 -19 18 -3 9 -5 1 -6 -18z"></path><path id="p11YBA3m1y" d="M162 1103 c-1 -31 -6 -43 -17 -43 -11 0 -15 -11 -15 -40 0 -28 4 -40 15 -40 18 0 28 49 22 115 -3 49 -3 50 -5 8z"></path><path id="pwF42TYW3" d="M196 1118 c-3 -13 -5 -50 -4 -83 1 -42 3 -49 5 -22 3 24 9 37 19 37 10 0 14 13 14 45 0 49 -23 64 -34 23z"></path><path id="p1GjXihiWX" d="M610 1070 c0 -28 4 -40 14 -40 9 0 16 -13 19 -32 3 -24 4 -19 5 17 2 62 -6 95 -24 95 -10 0 -14 -13 -14 -40z"></path><path id="pbGubasfo" d="M672 1065 c-2 -62 6 -95 24 -95 9 0 14 12 14 35 0 24 -5 35 -14 35 -10 0 -16 13 -19 38 -3 32 -4 30 -5 -13z"></path><path id="p1wUyDWrq" d="M120 899 c0 -17 7 -37 15 -45 13 -13 15 -13 15 -1 0 8 3 29 6 46 6 27 4 31 -15 31 -17 0 -21 -6 -21 -31z"></path><path id="p19h8YI5Pi" d="M686 883 c7 -49 14 -69 14 -40 0 10 5 17 10 17 6 0 10 16 10 35 0 29 -4 35 -21 35 -19 0 -20 -4 -13 -47z"></path><path id="pURDeQWr8" d="M181 870 c-1 -14 -8 -47 -16 -74 -19 -62 -19 -76 0 -76 8 0 15 -4 15 -8 0 -5 17 -27 38 -50 35 -38 44 -42 85 -42 45 0 47 1 47 28 0 20 -15 43 -55 85 -31 31 -62 57 -70 57 -10 0 -15 11 -15 35 0 19 -4 35 -9 35 -5 0 -12 8 -14 18 -3 11 -5 9 -6 -8z"></path><path id="p1YckpYjx" d="M651 878 c0 -10 -5 -18 -11 -18 -5 0 -10 -13 -10 -30 0 -19 -5 -30 -14 -30 -8 0 -31 -22 -51 -50 -22 -31 -49 -54 -71 -62 -30 -10 -34 -16 -34 -46 l0 -35 57 7 c68 8 89 20 126 73 19 27 27 51 27 83 0 45 -17 141 -19 108z"></path><path id="paZChdR2T" d="M717 803 c-4 -21 -1 -54 5 -75 10 -34 12 -36 24 -20 16 20 19 66 4 57 -6 -4 -10 10 -10 34 0 51 -15 53 -23 4z"></path><path id="pnGDmEXAd" d="M100 789 c0 -24 -4 -38 -10 -34 -5 3 -10 -3 -10 -14 0 -12 5 -21 10 -21 6 0 10 -8 11 -17 1 -24 38 86 37 112 0 16 -2 15 -8 -5 -8 -24 -8 -24 -9 -2 -2 40 -21 23 -21 -19z"></path><path id="pSjCyKchg" d="M130 666 c0 -12 67 -66 83 -66 4 0 7 11 7 25 0 18 -5 25 -20 25 -11 0 -20 7 -20 15 0 9 -9 15 -25 15 -14 0 -25 -6 -25 -14z"></path><path id="pzHae2x6X" d="M660 650 c0 -30 0 -30 25 -14 14 9 25 23 25 30 0 8 -10 14 -25 14 -21 0 -25 -5 -25 -30z"></path><path id="plyOv3fyl" d="M250 597 c0 -16 16 -21 103 -33 43 -6 47 -5 47 15 0 15 -6 21 -22 21 -13 0 -47 3 -75 6 -44 6 -53 4 -53 -9z"></path><path id="p14EGGHEJw" d="M90 325 c0 -18 19 -40 26 -32 4 4 0 15 -9 24 -9 10 -17 13 -17 8z"></path><path id="pmusPYEWN" d="M710 285 c-6 -8 -33 -28 -58 -45 -25 -16 -41 -30 -35 -30 13 0 75 42 102 69 12 12 17 21 12 21 -5 0 -14 -7 -21 -15z"></path><path id="pin5jSWbC" d="M170 241 c0 -8 50 -34 56 -29 1 2 -11 11 -27 20 -16 9 -29 14 -29 9z"></path></g></g><g id="l3gVY928d6BuXIG1wXIs09o" fill="rgb(115,115,115)" style="transform: none;"><g><path id="p1FEqDnjEx" d="M716 1870 c6 -8 16 -24 22 -35 6 -11 12 -15 12 -8 0 7 -10 22 -22 35 -13 13 -18 17 -12 8z"></path><path id="pFZ2IRERc" d="M104 1855 c-9 -14 -15 -27 -13 -30 3 -2 12 10 21 26 21 36 15 39 -8 4z"></path><path id="pnlPPGH1Q" d="M378 1813 c-10 -2 -18 -11 -18 -19 0 -11 15 -14 65 -14 49 0 65 3 65 14 0 22 -62 32 -112 19z"></path><path id="pBMggnG1i" d="M248 1798 c-42 -11 -52 -38 -14 -38 52 0 86 12 86 31 0 21 -14 22 -72 7z"></path><path id="pj4sw1fmK" d="M520 1790 c0 -16 7 -20 35 -20 40 0 49 24 13 34 -38 10 -48 7 -48 -14z"></path><path id="pYUYedwhf" d="M600 1770 c0 -16 7 -20 35 -20 40 0 49 24 13 34 -38 10 -48 7 -48 -14z"></path><path id="pFaX7AWEC" d="M170 1728 c0 -30 13 -58 26 -58 9 0 14 12 14 35 0 28 -4 35 -20 35 -11 0 -20 -6 -20 -12z"></path><path id="p13sR2L09U" d="M696 1643 c-4 -9 -4 -41 0 -70 5 -44 10 -53 26 -53 17 0 19 5 12 48 -7 48 -20 92 -28 92 -2 0 -7 -8 -10 -17z"></path><path id="p7FvV02qF" d="M116 1623 c-19 -100 -18 -113 2 -113 16 0 20 9 26 54 6 55 1 86 -14 86 -5 0 -11 -12 -14 -27z"></path><path id="pz5VE5C77" d="M180 1628 c0 -30 13 -58 26 -58 9 0 14 12 14 35 0 28 -4 35 -20 35 -11 0 -20 -6 -20 -12z"></path><path id="p1GIicwpKK" d="M620 1605 c0 -40 24 -49 34 -12 10 37 7 47 -14 47 -16 0 -20 -7 -20 -35z"></path><path id="pPOi7QmDl" d="M610 1445 c0 -40 24 -49 34 -12 10 37 7 47 -14 47 -16 0 -20 -7 -20 -35z"></path><path id="pYkQseutI" d="M190 1453 c0 -34 12 -63 26 -63 10 0 14 13 14 40 0 33 -3 40 -20 40 -12 0 -20 -7 -20 -17z"></path><path id="pAtd3PzKo" d="M676 1448 c-12 -45 -7 -68 14 -68 17 0 20 7 20 45 0 49 -23 64 -34 23z"></path><path id="pRpr58pxu" d="M130 1400 c0 -43 3 -50 20 -50 15 0 20 7 20 28 0 42 -11 72 -26 72 -10 0 -14 -14 -14 -50z"></path><path id="p4AmxpZBi" d="M161 1098 c0 -10 -8 -18 -16 -18 -11 0 -15 -11 -15 -40 0 -28 4 -40 15 -40 16 0 29 54 22 91 -2 15 -5 17 -6 7z"></path><path id="p89MfI7qW" d="M196 1088 c-3 -13 -5 -39 -5 -58 1 -19 3 -27 6 -17 2 9 11 17 19 17 10 0 14 12 14 40 0 45 -23 57 -34 18z"></path><path id="prbiT4Yzp" d="M610 1055 c0 -24 5 -35 14 -35 8 0 17 -10 19 -22 3 -15 5 -11 6 12 1 48 -9 80 -25 80 -9 0 -14 -12 -14 -35z"></path><path id="pKcAifLQl" d="M671 1060 c-1 -48 9 -80 25 -80 10 0 14 13 14 40 0 28 -4 40 -14 40 -8 0 -17 8 -19 18 -3 9 -5 1 -6 -18z"></path><path id="pSsAT6KH9" d="M186 898 c-10 -38 -7 -48 14 -48 16 0 20 7 20 35 0 40 -24 49 -34 13z"></path><path id="p5zXzBKeo" d="M624 865 c5 -45 3 -55 -9 -55 -8 0 -29 -20 -47 -45 -37 -50 -98 -85 -148 -85 -50 0 -111 35 -148 85 -28 38 -38 45 -67 45 -35 0 -35 0 -35 -45 0 -25 4 -45 9 -45 5 0 11 -10 13 -22 2 -17 11 -24 31 -26 21 -3 27 -9 27 -27 0 -20 6 -25 45 -30 24 -4 98 -6 165 -4 109 4 120 2 120 -14 0 -15 3 -16 32 -4 44 18 48 37 8 37 -38 0 -36 19 3 38 16 8 27 21 27 33 0 12 7 19 20 19 24 0 25 12 5 76 -8 27 -17 66 -20 87 -4 25 -11 37 -22 37 -13 0 -15 -9 -9 -55z m-9 -146 c-32 -45 -62 -69 -85 -69 -9 1 -5 6 10 14 14 8 40 35 59 61 18 25 36 44 39 41 3 -3 -8 -24 -23 -47z m-312 -54 c20 -14 20 -15 3 -15 -22 0 -96 76 -96 98 0 9 16 -3 36 -26 19 -23 45 -49 57 -57z"></path><path id="pS3Y3aecX" d="M690 859 c0 -22 32 -134 41 -143 5 -6 9 3 9 23 0 20 -7 39 -17 47 -11 8 -13 13 -5 14 7 0 12 14 12 35 0 28 -4 35 -20 35 -11 0 -20 -5 -20 -11z"></path><path id="puLJ9woOP" d="M440 580 c0 -21 10 -24 48 -14 36 10 27 34 -13 34 -28 0 -35 -4 -35 -20z"></path><path id="pUbMCb9Ht" d="M732 318 c-14 -14 -16 -28 -3 -28 9 0 24 30 18 36 -2 2 -9 -2 -15 -8z"></path><path id="p9ykqYJtg" d="M145 261 c11 -13 28 -27 39 -33 29 -16 11 7 -27 33 l-32 23 20 -23z"></path><path id="ppINPqGQo" d="M670 250 c-19 -17 -26 -27 -15 -21 19 9 63 51 54 51 -3 0 -20 -14 -39 -30z"></path></g></g><g id="l1OFHje4umN9yL1emv4k9fv" fill="rgb(107,107,107)" style="transform: none;"><g><path id="p16Ma4iFMb" d="M560 1781 c0 -10 8 -21 19 -24 19 -5 23 -18 37 -129 4 -29 12 -48 19 -48 15 0 21 26 30 125 l7 70 -46 13 c-61 16 -66 15 -66 -7z"></path><path id="p1CK9PaXD4" d="M187 1783 c-17 -4 -18 -12 -12 -76 9 -103 15 -127 31 -127 9 0 14 11 14 34 0 19 4 45 9 58 4 13 11 44 15 71 7 45 6 47 -16 46 -13 -1 -31 -3 -41 -6z"></path><path id="pNglxykRp" d="M685 1570 c-7 -32 11 -60 39 -60 19 0 20 15 5 59 -14 39 -35 40 -44 1z"></path><path id="p14daJl6lO" d="M106 1548 c-12 -45 -7 -68 14 -68 17 0 20 7 20 45 0 49 -23 64 -34 23z"></path><path id="pzgdAE8De" d="M190 1473 c0 -34 12 -63 26 -63 10 0 14 13 14 40 0 33 -3 40 -20 40 -12 0 -20 -7 -20 -17z"></path><path id="pOp8Ok74L" d="M610 1455 c0 -40 24 -49 34 -12 10 37 7 47 -14 47 -16 0 -20 -7 -20 -35z"></path><path id="p11EmbdofE" d="M676 1418 c-12 -48 -7 -78 14 -78 17 0 20 7 20 50 0 36 -4 50 -14 50 -7 0 -16 -10 -20 -22z"></path><path id="p16UhB8ZPg" d="M130 1355 c0 -48 2 -55 20 -55 16 0 20 7 20 33 0 47 -10 77 -26 77 -10 0 -14 -15 -14 -55z"></path><path id="pZ7CruEzi" d="M130 1060 c0 -45 23 -57 34 -17 11 41 7 57 -14 57 -17 0 -20 -7 -20 -40z"></path><path id="pzpFvFoTS" d="M196 1068 c-11 -42 -7 -58 14 -58 17 0 20 7 20 40 0 45 -23 57 -34 18z"></path><path id="pFvrIPl63" d="M670 1068 c0 -39 12 -68 26 -68 10 0 14 13 14 45 0 38 -3 45 -20 45 -14 0 -20 -7 -20 -22z"></path><path id="p7ze6yKxB" d="M610 1040 c0 -33 3 -40 20 -40 21 0 25 16 14 58 -11 39 -34 27 -34 -18z"></path><path id="p1GnwWpljs" d="M120 905 c0 -40 24 -49 34 -12 10 37 7 47 -14 47 -16 0 -20 -7 -20 -35z"></path><path id="p1AeDv7DZP" d="M185 873 c-4 -21 -11 -53 -17 -71 -5 -18 -7 -44 -4 -58 5 -17 2 -24 -8 -24 -13 0 -26 -28 -26 -57 0 -7 9 -13 20 -13 16 0 20 7 20 30 0 22 5 30 18 30 25 0 42 -19 42 -47 0 -19 -5 -23 -30 -23 -42 0 -37 -15 13 -39 50 -24 77 -27 77 -7 0 19 108 31 195 21 46 -5 65 -11 65 -21 0 -20 23 -18 75 7 52 25 58 39 15 39 -25 0 -30 4 -30 23 0 28 17 47 42 47 13 0 18 -8 18 -30 0 -23 4 -30 20 -30 11 0 20 6 20 13 0 29 -13 57 -27 57 -10 0 -12 6 -8 21 4 12 2 38 -3 58 -6 20 -14 53 -17 74 -8 50 -35 51 -35 1 0 -29 -10 -47 -52 -96 -62 -71 -92 -88 -150 -88 -57 1 -100 25 -138 78 -17 24 -37 45 -45 49 -10 3 -15 20 -15 49 0 57 -26 62 -35 7z m85 -175 c0 -19 91 -48 150 -48 82 0 134 25 179 87 19 26 36 42 38 36 6 -17 -21 -64 -57 -98 l-31 -30 -129 0 -129 0 -31 30 c-34 32 -60 75 -60 97 1 13 70 -60 70 -74z"></path><path id="popEEl14s" d="M101 758 l1 -73 19 60 c24 76 24 85 -1 85 -18 0 -20 -6 -19 -72z"></path><path id="pT6FOz2F3" d="M700 818 c0 -7 9 -40 19 -73 l19 -60 1 73 c1 66 -1 72 -19 72 -11 0 -20 -6 -20 -12z"></path><path id="pm1qEbnXp" d="M340 586 c0 -13 28 -26 58 -26 6 0 12 9 12 20 0 16 -7 20 -35 20 -23 0 -35 -5 -35 -14z"></path><path id="p18YhOE2Z" d="M430 580 c0 -21 10 -24 48 -14 36 10 27 34 -13 34 -28 0 -35 -4 -35 -20z"></path><path id="pIaATs2Lk" d="M90 316 c0 -7 74 -76 81 -76 3 0 -11 18 -32 40 -35 37 -49 47 -49 36z"></path><path id="p1FN0pLOSX" d="M720 300 c-8 -16 -8 -18 4 -14 17 6 30 34 16 34 -5 0 -14 -9 -20 -20z"></path></g></g><g id="l23IrRcYxqTvygWBasO9ruZ" fill="rgb(99,99,99)" style="transform: none;"><g><path id="pkUERcUUk" d="M255 1796 c-31 -9 -41 -17 -43 -36 -2 -14 -10 -46 -18 -71 -16 -50 -10 -99 11 -99 7 0 15 12 19 28 32 152 27 140 68 147 29 5 38 12 38 26 0 22 -16 23 -75 5z"></path><path id="pohGitF5e" d="M510 1792 c0 -16 9 -22 38 -27 42 -7 37 5 69 -147 3 -16 11 -28 18 -28 22 0 27 52 10 99 -8 24 -15 54 -15 68 0 25 -19 36 -84 48 -32 6 -36 5 -36 -13z"></path><path id="pgjsqJHJP" d="M170 1743 c1 -36 2 -37 15 -19 19 26 19 56 0 56 -11 0 -15 -11 -15 -37z"></path><path id="p1B00Z29ra" d="M645 1753 c9 -37 25 -53 25 -26 0 29 -10 53 -22 53 -6 0 -7 -11 -3 -27z"></path><path id="pVHkr6V0R" d="M118 1623 c-1 -10 -3 -34 -5 -53 -2 -19 -6 -88 -9 -152 -5 -103 -4 -118 10 -118 13 0 16 -11 16 -50 0 -44 2 -50 21 -50 20 0 21 4 17 77 -2 48 -8 78 -16 81 -15 5 -17 169 -1 174 14 5 -2 100 -19 106 -6 2 -13 -5 -14 -15z"></path><path id="poocdiXDR" d="M700 1520 c0 -43 3 -50 20 -50 15 0 20 7 20 28 0 42 -11 72 -26 72 -10 0 -14 -14 -14 -50z"></path><path id="pykIaBoCK" d="M190 1488 c0 -30 13 -58 26 -58 9 0 14 12 14 35 0 28 -4 35 -20 35 -11 0 -20 -6 -20 -12z"></path><path id="pvfT7UbAp" d="M610 1465 c0 -40 24 -49 34 -12 10 37 7 47 -14 47 -16 0 -20 -7 -20 -35z"></path><path id="p1HGccJC5X" d="M676 1378 c-3 -13 -6 -40 -6 -60 0 -31 4 -38 20 -38 18 0 20 7 20 60 0 44 -4 60 -14 60 -7 0 -16 -10 -20 -22z"></path><path id="pqtgwBAHB" d="M130 1125 c0 -33 -4 -45 -15 -45 -23 0 -22 -258 0 -267 9 -3 19 -2 23 2 4 3 6 54 4 112 -3 77 0 108 9 114 7 4 15 35 17 68 4 57 3 61 -17 61 -18 0 -21 -6 -21 -45z"></path><path id="pXI26HRR0" d="M670 1093 c0 -34 12 -63 26 -63 10 0 14 13 14 40 0 33 -3 40 -20 40 -12 0 -20 -7 -20 -17z"></path><path id="ptDe9ww1Y" d="M196 1048 c-11 -42 -7 -58 14 -58 17 0 20 7 20 40 0 45 -23 57 -34 18z"></path><path id="p14rsiGSeF" d="M610 1025 c0 -28 4 -35 20 -35 21 0 24 10 14 48 -10 36 -34 27 -34 -13z"></path><path id="pG4IciPSh" d="M680 929 c0 -7 5 -29 12 -50 8 -27 17 -39 30 -39 15 0 18 8 18 50 0 49 -1 50 -30 50 -16 0 -30 -5 -30 -11z"></path><path id="pRkzvvcL0" d="M185 863 c-4 -21 -12 -51 -18 -67 -8 -23 -8 -31 1 -34 7 -2 12 -19 12 -38 0 -23 5 -34 14 -34 8 0 16 -10 18 -22 2 -13 10 -24 18 -25 8 -1 41 -5 73 -8 40 -5 57 -11 57 -21 0 -9 11 -14 30 -14 23 0 30 -4 30 -20 0 -21 10 -24 48 -14 19 6 22 11 17 35 -6 27 -5 27 52 34 32 3 65 7 73 8 8 1 16 13 18 25 5 32 35 24 42 -10 4 -24 7 -25 23 -13 16 11 17 18 6 59 -8 31 -17 46 -28 46 -13 0 -14 2 -2 9 12 7 12 15 4 33 l-11 23 -11 -30 c-17 -46 -30 -67 -62 -105 l-30 -35 -139 0 -139 0 -30 35 c-28 32 -71 110 -71 127 0 4 20 -14 45 -40 25 -27 45 -52 45 -57 0 -23 86 -54 150 -54 81 0 111 15 176 91 57 65 68 89 58 127 -10 42 -34 32 -34 -13 0 -33 -4 -40 -22 -43 -13 -2 -35 -21 -52 -47 -61 -92 -195 -95 -247 -6 -12 20 -34 42 -50 51 -24 12 -29 21 -29 49 0 49 -27 47 -35 -2z"></path><path id="pFVD0ko3F" d="M101 738 l1 -53 13 35 c18 47 18 70 0 70 -12 0 -15 -12 -14 -52z"></path><path id="pY7Vfoq4Z" d="M711 773 c0 -10 7 -34 14 -53 l13 -35 1 53 c1 40 -2 52 -14 52 -8 0 -15 -8 -14 -17z"></path><path id="p17tQW78uN" d="M137 683 c-13 -12 -7 -28 13 -41 18 -11 20 -10 20 18 0 28 -17 40 -33 23z"></path><path id="p187qnwqf5" d="M96 306 c3 -8 12 -17 20 -20 11 -4 12 -2 1 14 -14 23 -29 27 -21 6z"></path><path id="p1ErujRBMY" d="M716 295 c-17 -25 -16 -25 4 -13 11 7 20 18 20 25 0 19 -6 16 -24 -12z"></path></g></g><g id="l2dCmOV9sW0lzW8mixyGiyK" fill="rgb(90,90,90)" style="transform: none;"><g><path id="pKZlkcBWG" d="M288 1803 c-33 -8 -20 -33 17 -33 28 0 35 4 35 20 0 20 -14 23 -52 13z"></path><path id="pMP5kI7hz" d="M500 1790 c0 -16 7 -20 35 -20 40 0 49 24 13 34 -38 10 -48 7 -48 -14z"></path><path id="pHssoMv65" d="M212 1733 c-7 -32 -15 -70 -18 -85 -5 -23 -3 -28 14 -28 23 0 37 34 46 118 6 46 5 52 -12 52 -14 0 -21 -13 -30 -57z"></path><path id="piqUnwQAb" d="M586 1738 c9 -84 23 -118 46 -118 17 0 19 5 15 28 -29 139 -30 142 -49 142 -17 0 -18 -6 -12 -52z"></path><path id="pqNB0SP8y" d="M170 1743 l1 -38 14 25 c19 33 19 50 0 50 -11 0 -15 -11 -15 -37z"></path><path id="pinpiaDJ0" d="M640 1767 c0 -7 7 -22 15 -33 14 -18 14 -17 15 14 0 22 -5 32 -15 32 -8 0 -15 -6 -15 -13z"></path><path id="pD6PwrCVq" d="M127 1654 c-13 -13 -7 -44 8 -44 16 0 17 5 6 33 -3 10 -10 15 -14 11z"></path><path id="pr7GrEUMD" d="M697 1633 c-16 -81 -18 -113 -8 -113 16 0 15 -177 -1 -182 -19 -7 -18 -276 1 -287 10 -7 13 -33 11 -107 -4 -138 -3 -144 19 -144 17 0 18 11 20 150 1 128 -1 150 -14 150 -10 0 -15 10 -15 35 0 25 4 35 16 35 13 0 15 21 10 173 -2 94 -6 200 -9 235 -5 71 -22 102 -30 55z"></path><path id="pDcjSxNb7" d="M190 1498 c0 -30 13 -58 26 -58 9 0 14 12 14 35 0 28 -4 35 -20 35 -11 0 -20 -6 -20 -12z"></path><path id="p187r1nphK" d="M610 1475 c0 -40 24 -49 34 -12 10 37 7 47 -14 47 -16 0 -20 -7 -20 -35z"></path><path id="p12tkehtVe" d="M108 1383 c-2 -10 -5 -66 -7 -125 -3 -94 -1 -108 13 -108 9 0 16 -8 16 -20 0 -11 -7 -20 -15 -20 -16 0 -19 -28 -9 -67 8 -31 34 -30 34 1 0 13 6 26 13 28 17 6 17 180 0 185 -9 3 -13 27 -13 74 0 52 -3 69 -14 69 -7 0 -16 -8 -18 -17z"></path><path id="pxmkFnskk" d="M196 1028 c-10 -38 -7 -48 14 -48 16 0 20 7 20 35 0 40 -24 49 -34 13z"></path><path id="p8tC47ENb" d="M610 1015 c0 -28 4 -35 20 -35 21 0 24 10 14 48 -10 36 -34 27 -34 -13z"></path><path id="prVXeCfPQ" d="M190 885 c0 -81 1 -85 27 -98 14 -8 38 -32 52 -53 65 -96 243 -93 306 6 14 22 37 45 50 50 24 9 25 13 25 95 l0 85 -26 0 -27 0 7 -65 c6 -64 6 -65 -18 -65 -18 0 -33 -12 -57 -46 -19 -28 -46 -52 -67 -61 -31 -13 -40 -13 -78 2 -26 10 -56 32 -74 55 -17 21 -41 40 -53 42 -25 3 -36 43 -18 61 6 6 11 26 11 44 0 30 -3 33 -30 33 l-30 0 0 -85z"></path><path id="pz7FjLtLo" d="M116 908 c-3 -24 -9 -60 -12 -81 -6 -34 -4 -39 12 -35 14 2 21 15 25 48 4 25 10 60 14 78 7 28 5 32 -12 32 -16 0 -22 -9 -27 -42z"></path><path id="pj378KjFD" d="M166 788 c-3 -7 -9 -28 -15 -47 -15 -48 -14 -61 7 -61 10 0 23 12 29 28 11 27 11 27 12 -10 1 -36 0 -38 -31 -38 l-33 -1 28 -24 c36 -32 47 -31 47 0 0 20 5 25 26 25 l26 0 -25 33 c-14 18 -32 50 -41 70 -16 39 -24 45 -30 25z"></path><path id="pGPITlD4v" d="M644 765 c-9 -21 -27 -54 -41 -72 l-25 -33 26 0 c21 0 26 -5 26 -25 0 -31 11 -32 47 0 l28 24 -32 1 c-31 0 -33 2 -32 38 0 20 3 31 6 25 2 -7 14 -13 25 -13 18 0 19 4 13 38 -10 56 -22 61 -41 17z"></path><path id="pB6n033ux" d="M112 764 c-7 -8 -12 -27 -10 -42 4 -25 5 -24 16 12 13 45 12 50 -6 30z"></path><path id="pTwOeOh2M" d="M270 630 c0 -14 7 -20 24 -20 34 0 56 -10 56 -26 0 -17 59 -28 99 -19 17 4 31 13 31 21 0 8 7 14 15 14 8 0 15 -7 15 -16 0 -13 7 -15 32 -10 40 8 39 7 32 44 l-6 32 -57 -7 c-71 -10 -111 -10 -183 0 -54 7 -58 6 -58 -13z"></path><path id="p1FH2qatC7" d="M101 309 c0 -8 17 -27 37 -43 l37 -30 -35 39 c-19 22 -36 42 -37 44 -2 2 -3 -2 -2 -10z"></path><path id="pZqolsEoA" d="M700 275 l-34 -40 34 30 c19 17 37 31 38 32 2 1 2 6 1 10 -2 5 -20 -10 -39 -32z"></path></g></g><g id="l5baVAQr0wJoP1Qzf0QLpTj" fill="rgb(82,82,82)" style="transform: none;"><g><path id="plPlG5S1C" d="M270 1797 c-45 -12 -45 -12 -51 -63 -4 -28 -11 -60 -18 -72 -17 -31 -13 -52 8 -52 21 0 48 59 53 115 3 26 8 31 46 39 30 7 42 15 42 28 0 21 -15 22 -80 5z"></path><path id="pAqrFSurh" d="M490 1792 c0 -16 9 -21 45 -26 43 -7 45 -9 45 -41 0 -51 28 -115 51 -115 23 0 24 16 4 63 -8 20 -15 52 -15 72 0 39 -11 47 -87 60 -39 6 -43 5 -43 -13z"></path><path id="pOLY5SlPH" d="M170 1743 c1 -39 10 -33 24 15 6 16 3 22 -8 22 -12 0 -16 -10 -16 -37z"></path><path id="p12glUbMQH" d="M644 1764 c3 -9 6 -20 6 -25 0 -5 5 -9 10 -9 6 0 10 11 10 25 0 16 -6 25 -16 25 -11 0 -14 -5 -10 -16z"></path><path id="paJY9JicA" d="M123 1632 c-4 -19 -7 -51 -5 -73 3 -31 8 -39 23 -39 18 0 19 5 13 53 -4 28 -10 61 -14 72 -7 17 -9 16 -17 -13z"></path><path id="phBl4WD39" d="M696 1638 c-10 -38 -7 -48 13 -48 17 0 18 4 11 31 -12 42 -16 44 -24 17z"></path><path id="p1B6Ly3L7T" d="M190 1508 c0 -30 13 -58 26 -58 9 0 14 12 14 35 0 28 -4 35 -20 35 -11 0 -20 -6 -20 -12z"></path><path id="p1FN8jv24u" d="M610 1485 c0 -40 24 -49 34 -12 10 37 7 47 -14 47 -16 0 -20 -7 -20 -35z"></path><path id="pnmtebSYA" d="M700 1135 c0 -74 3 -95 14 -95 17 0 26 31 26 95 0 64 -9 95 -26 95 -11 0 -14 -21 -14 -95z"></path><path id="p8yy3yBCt" d="M106 1188 c-15 -56 -3 -138 20 -138 11 0 14 19 14 80 0 61 -3 80 -14 80 -7 0 -16 -10 -20 -22z"></path><path id="p10BteXFCz" d="M196 1018 c-12 -45 -7 -78 11 -78 13 0 14 -3 5 -12 -26 -26 -13 -38 42 -38 70 0 86 -7 86 -37 0 -18 -4 -23 -17 -19 -10 2 -44 7 -75 11 -46 5 -58 4 -58 -7 0 -19 21 -38 41 -38 10 0 31 -16 46 -37 49 -64 143 -90 217 -59 19 8 47 33 64 59 26 37 35 44 56 40 21 -4 26 0 32 21 3 15 1 46 -4 69 -7 26 -8 43 -2 45 11 4 13 45 4 80 -10 36 -34 27 -34 -12 l0 -34 -65 -7 -65 -7 0 -34 0 -34 65 0 c51 0 65 -3 65 -15 0 -11 -12 -15 -49 -15 -41 0 -51 -4 -65 -25 -9 -14 -32 -33 -50 -41 -30 -15 -35 -15 -67 2 l-34 19 33 3 c29 3 32 6 32 38 0 19 -4 34 -10 34 -5 0 -10 13 -10 29 0 32 -6 35 -102 46 -58 7 -58 7 -58 41 0 39 -24 47 -34 12z"></path><path id="p13va3RXE8" d="M680 938 c0 -30 13 -58 26 -58 9 0 14 12 14 35 0 28 -4 35 -20 35 -11 0 -20 -6 -20 -12z"></path><path id="pcMIVV86c" d="M703 818 c4 -24 12 -61 19 -83 l13 -40 3 50 c5 69 -5 115 -25 115 -13 0 -15 -8 -10 -42z"></path><path id="pHCbc4lxy" d="M106 828 c-10 -37 -7 -58 8 -58 14 0 26 29 26 63 0 25 -27 21 -34 -5z"></path><path id="pkecHpUTZ" d="M172 755 c-3 -55 11 -85 38 -85 15 0 20 -7 20 -25 0 -16 6 -25 15 -25 8 0 15 -8 15 -19 0 -11 9 -21 23 -25 35 -9 47 -7 47 9 0 8 9 15 20 15 11 0 20 -6 20 -14 0 -17 42 -28 75 -20 14 3 25 12 25 20 0 8 10 14 26 14 14 0 45 5 70 11 37 10 44 15 44 35 0 17 6 24 20 24 27 0 42 33 38 88 l-3 47 -21 -45 c-30 -64 -70 -108 -104 -114 -17 -3 -43 -9 -60 -12 -17 -3 -30 -12 -30 -20 0 -9 -11 -14 -30 -14 -19 0 -30 5 -30 14 0 8 -13 17 -30 20 -16 3 -43 9 -60 12 -34 6 -75 51 -102 112 -10 23 -20 42 -22 42 -1 0 -4 -20 -4 -45z"></path><path id="pM1vCEkV7" d="M101 728 c0 -28 2 -30 9 -13 12 28 12 45 0 45 -5 0 -10 -15 -9 -32z"></path></g></g><g id="lnKJTXAvp2mo9x0x9xIL3S" fill="rgb(74,74,74)" style="transform: none;"><g><path id="p1HQl4Dz5S" d="M570 1770 c0 -13 7 -20 20 -20 13 0 20 7 20 20 0 13 -7 20 -20 20 -13 0 -20 -7 -20 -20z"></path><path id="ps69DhF1T" d="M647 1761 c3 -12 10 -21 15 -21 13 0 6 32 -9 37 -7 3 -9 -3 -6 -16z"></path><path id="pSekDJUX9" d="M213 1681 c-28 -70 -29 -91 -5 -91 25 0 52 55 52 106 0 62 -20 56 -47 -15z"></path><path id="pqCKLhxTc" d="M580 1696 c0 -51 27 -106 53 -106 23 0 22 21 -5 91 -28 71 -48 77 -48 15z"></path><path id="pF0ht3DEM" d="M122 1625 c-16 -55 -15 -65 8 -65 21 0 25 30 11 80 -7 24 -8 23 -19 -15z"></path><path id="pYM33A3Ad" d="M697 1623 c-4 -3 -7 -19 -7 -35 0 -21 5 -28 20 -28 21 0 24 10 14 48 -6 22 -15 27 -27 15z"></path><path id="pZnf8ZybN" d="M190 1518 c0 -30 13 -58 26 -58 9 0 14 12 14 35 0 28 -4 35 -20 35 -11 0 -20 -6 -20 -12z"></path><path id="pIHeBBwa2" d="M610 1495 c0 -40 24 -49 34 -12 10 37 7 47 -14 47 -16 0 -20 -7 -20 -35z"></path><path id="pb8PUDqai" d="M195 989 c-4 -17 -4 -33 0 -37 3 -4 36 -12 73 -19 l67 -11 -55 0 c-30 0 -60 -1 -67 -1 -6 -1 -15 -22 -19 -47 -8 -53 1 -64 56 -64 22 0 51 -12 79 -30 70 -48 167 -33 201 29 13 26 65 29 78 4 9 -16 11 -15 27 1 14 14 16 25 8 64 l-8 47 -65 -2 -65 -2 67 12 c37 7 70 15 73 19 11 11 -6 68 -20 68 -8 0 -15 -10 -17 -22 -4 -29 -45 -37 -188 -37 -143 0 -184 8 -188 37 -5 32 -29 27 -37 -9z m105 -99 c0 -5 7 -10 15 -10 8 0 15 -7 15 -15 0 -11 -12 -15 -50 -15 -53 0 -68 18 -32 39 22 13 52 14 52 1z m284 0 c42 -15 30 -30 -24 -30 -27 0 -50 5 -50 10 0 6 7 10 15 10 8 0 15 5 15 10 0 13 12 13 44 0z"></path><path id="pelBRRzlK" d="M106 809 c-16 -81 4 -111 23 -35 14 58 14 66 -3 66 -7 0 -16 -14 -20 -31z"></path><path id="p1GIkUk4rz" d="M700 829 c0 -5 5 -30 11 -55 15 -59 34 -43 25 20 -5 30 -12 46 -22 46 -8 0 -14 -5 -14 -11z"></path><path id="pOIRpbThk" d="M152 734 c-25 -81 -22 -88 67 -132 53 -26 63 -27 201 -27 139 0 147 1 202 28 88 44 91 50 66 131 -22 71 -28 73 -47 16 -16 -50 -63 -97 -108 -109 -49 -14 -177 -14 -226 0 -45 12 -92 59 -108 109 -19 57 -25 55 -47 -16z"></path></g></g><g id="l28TMDY5j6ttqBodJfsXvCi" fill="rgb(66,66,66)" style="transform: none;"><g><path id="p156sLhYkY" d="M280 1797 l-45 -12 -3 -53 c-2 -30 -11 -67 -23 -85 -24 -40 -25 -67 -1 -67 30 1 57 50 62 115 l5 60 43 9 c30 7 42 15 42 28 0 21 -15 22 -80 5z"></path><path id="pCbQ3JEGS" d="M480 1790 c0 -16 7 -20 35 -20 40 0 49 24 13 34 -38 10 -48 7 -48 -14z"></path><path id="pgeKjVEWr" d="M566 1722 c7 -83 34 -142 67 -142 23 0 22 27 -2 67 -11 18 -21 55 -23 84 -2 43 -7 53 -25 60 -23 8 -23 8 -17 -69z"></path><path id="pRhgTfbiv" d="M170 1744 c0 -14 4 -23 10 -19 6 3 10 15 10 26 0 10 -4 19 -10 19 -5 0 -10 -12 -10 -26z"></path><path id="pvV4tlELZ" d="M650 1751 c0 -11 5 -23 10 -26 6 -4 10 5 10 19 0 14 -4 26 -10 26 -5 0 -10 -9 -10 -19z"></path><path id="pzasoKkUQ" d="M700 1648 c0 -9 -3 -23 -6 -32 -4 -11 -1 -16 10 -16 18 0 21 27 6 50 -8 13 -10 13 -10 -2z"></path><path id="pxWic9cwz" d="M120 1545 c0 -28 4 -35 20 -35 21 0 24 10 14 48 -10 36 -34 27 -34 -13z"></path><path id="p5Q4HYTvp" d="M686 1558 c-10 -38 -7 -48 14 -48 16 0 20 7 20 35 0 40 -24 49 -34 13z"></path><path id="p8IJmNA4q" d="M190 1528 c0 -30 13 -58 26 -58 9 0 14 12 14 35 0 28 -4 35 -20 35 -11 0 -20 -6 -20 -12z"></path><path id="p4xXRx8Ia" d="M610 1505 c0 -40 24 -49 34 -12 10 37 7 47 -14 47 -16 0 -20 -7 -20 -35z"></path><path id="p1FgAfvxi1" d="M196 984 c-4 -15 -5 -29 -2 -31 10 -10 92 -22 146 -21 l55 1 -37 10 c-21 6 -38 14 -38 19 0 4 -13 8 -29 8 -39 0 -61 9 -61 26 0 25 -28 15 -34 -12z"></path><path id="p12cg3uwRX" d="M610 996 c0 -17 -22 -26 -61 -26 -16 0 -29 -4 -29 -8 0 -5 -17 -13 -37 -19 l-38 -10 55 -1 c54 -1 136 11 146 21 3 2 2 16 -2 31 -6 27 -34 37 -34 12z"></path><path id="pfkxyLggq" d="M120 943 c0 -10 -3 -42 -6 -70 -6 -44 -4 -53 9 -53 15 0 20 12 32 98 6 38 5 42 -14 42 -13 0 -21 -6 -21 -17z"></path><path id="pp44OAnOx" d="M685 918 c12 -86 17 -98 32 -98 13 0 15 9 9 53 -3 28 -6 60 -6 70 0 11 -8 17 -21 17 -19 0 -20 -4 -14 -42z"></path><path id="p1CxQHGnWw" d="M240 907 c19 -6 37 -14 40 -18 3 -4 14 -8 24 -10 11 -2 21 -10 24 -18 3 -10 0 -12 -12 -8 -10 4 -33 7 -52 7 -24 0 -34 5 -34 15 0 25 -27 17 -34 -10 -10 -38 0 -45 57 -45 33 0 66 -7 90 -20 20 -11 52 -20 71 -20 39 0 106 25 106 40 0 6 20 10 45 10 25 0 45 -4 45 -10 0 -16 14 -11 27 9 14 23 6 61 -13 61 -8 0 -14 -4 -14 -10 0 -5 -21 -9 -47 -9 -27 1 -39 4 -28 6 11 3 22 8 25 12 3 4 21 12 40 18 35 11 35 11 -20 12 -82 1 -97 -5 -105 -45 -6 -33 -7 -34 -55 -34 -48 0 -49 1 -55 34 -8 40 -23 46 -105 45 -55 -1 -55 -1 -20 -12z"></path><path id="pnM0Da5SO" d="M105 789 c-4 -5 -4 -22 0 -37 7 -25 8 -25 15 -7 17 41 4 76 -15 44z"></path><path id="p1GDhDGz8o" d="M711 783 c0 -10 4 -27 9 -38 7 -18 8 -18 15 7 7 28 1 48 -16 48 -5 0 -9 -8 -8 -17z"></path><path id="p9BzhrDMB" d="M155 738 c-9 -29 -18 -59 -21 -66 -4 -14 74 -74 87 -66 5 3 9 0 9 -6 0 -7 8 -9 20 -5 11 4 20 2 20 -4 0 -6 7 -8 15 -5 8 4 15 2 15 -3 0 -6 49 -10 119 -9 65 1 115 4 109 7 -5 4 8 6 30 6 40 0 116 36 139 65 7 9 4 33 -10 78 -18 60 -20 63 -33 45 -8 -11 -12 -26 -8 -35 11 -30 9 -35 -23 -50 -33 -15 -47 -38 -15 -25 9 4 28 10 42 13 51 11 1 -25 -58 -42 -125 -35 -331 -25 -398 19 -26 17 -33 41 -9 31 38 -15 48 -16 23 -1 -29 16 -35 34 -18 51 10 10 2 54 -10 54 -5 0 -16 -24 -25 -52z"></path></g></g><g id="l3A6O3plbQdUwbFokyfrkzN" fill="rgb(58,58,58)" style="transform: none;"><g><path id="p1GUz2k39h" d="M318 1803 c-33 -8 -20 -33 17 -33 28 0 35 4 35 20 0 20 -14 23 -52 13z"></path><path id="ppxt4s3CV" d="M460 1791 c0 -17 6 -21 29 -21 52 0 61 -8 61 -59 0 -25 6 -55 13 -66 42 -70 54 -85 70 -85 25 0 22 40 -8 80 -19 26 -25 46 -25 87 0 61 -7 67 -87 78 -49 6 -53 5 -53 -14z"></path><path id="pf9Lk4tXh" d="M263 1790 c-20 -8 -23 -17 -23 -63 0 -41 -6 -61 -25 -87 -31 -42 -33 -80 -5 -80 11 0 20 5 20 11 0 6 14 27 30 46 28 31 30 40 30 108 0 41 -1 75 -2 74 -2 0 -13 -4 -25 -9z"></path><path id="p6kvLSGhw" d="M121 1615 c-15 -54 -4 -115 20 -115 17 0 19 6 13 58 -4 31 -10 66 -14 77 -6 17 -9 14 -19 -20z"></path><path id="pXaDesK1E" d="M690 1585 c0 -28 4 -35 20 -35 21 0 24 10 14 48 -10 36 -34 27 -34 -13z"></path><path id="pjbYmoIXw" d="M190 1538 c0 -30 13 -58 26 -58 9 0 14 12 14 35 0 28 -4 35 -20 35 -11 0 -20 -6 -20 -12z"></path><path id="pLXueznSl" d="M610 1515 c0 -40 24 -49 34 -12 10 37 7 47 -14 47 -16 0 -20 -7 -20 -35z"></path><path id="p3Kx6bjWv" d="M108 968 c-2 -117 -1 -219 3 -226 15 -34 39 144 39 288 0 141 -1 150 -19 150 -19 0 -20 -11 -23 -212z"></path><path id="pfcyhp6Vv" d="M690 1030 c0 -144 24 -322 39 -288 4 7 5 109 3 226 -3 201 -4 212 -23 212 -18 0 -19 -9 -19 -150z"></path><path id="pQ2BHHSKS" d="M200 991 c0 -5 -3 -16 -6 -24 -6 -16 7 -20 99 -33 42 -6 47 -4 47 14 0 16 -8 20 -52 24 -29 3 -54 11 -56 17 -4 13 -32 15 -32 2z"></path><path id="pXwe3hTTx" d="M608 989 c-2 -6 -27 -14 -56 -17 -44 -4 -52 -8 -52 -24 0 -18 5 -20 48 -14 91 13 104 17 98 33 -3 8 -6 19 -6 24 0 13 -28 11 -32 -2z"></path><path id="pEqpS9PgG" d="M207 913 c-4 -3 -7 -24 -7 -45 0 -31 3 -38 20 -38 17 0 20 7 20 40 0 40 15 54 26 25 8 -20 74 -21 74 -1 0 7 -10 16 -22 20 -31 8 -103 8 -111 -1z"></path><path id="pZboUcWkG" d="M518 913 c-36 -9 -20 -33 22 -33 29 0 40 4 40 15 0 8 5 15 10 15 6 0 10 -9 10 -20 0 -11 -7 -20 -15 -20 -24 0 -18 -27 8 -34 44 -12 48 -8 45 37 l-3 42 -50 2 c-27 0 -58 -1 -67 -4z"></path><path id="ppzZ9drhq" d="M472 854 c-10 -19 -89 -24 -101 -7 -3 5 -32 11 -63 12 -47 2 -58 -1 -58 -13 0 -9 2 -16 5 -16 3 0 41 -7 83 -16 84 -17 154 -13 178 11 9 8 22 15 30 15 8 0 14 7 14 15 0 22 -76 21 -88 -1z"></path><path id="pqoLFrlmk" d="M153 720 l-22 -60 24 -18 c13 -11 52 -27 87 -37 35 -9 65 -21 68 -26 8 -13 292 12 310 26 8 7 25 16 36 19 23 7 63 46 47 46 -5 0 -10 6 -10 13 -1 29 -25 97 -35 97 -13 0 -2 -80 13 -95 5 -5 9 -12 9 -16 0 -16 -106 -50 -193 -61 -83 -10 -105 -9 -180 6 -96 20 -155 49 -139 69 13 16 26 97 15 97 -4 0 -18 -27 -30 -60z"></path></g></g><g id="l32xpHOjXcYOFSfUsSCFDqq" fill="rgb(49,49,49)" style="transform: none;"><g><path id="pc1v34cSf" d="M325 1803 c-69 -14 -65 -10 -65 -68 0 -46 -5 -60 -29 -88 -35 -39 -46 -75 -37 -122 7 -38 36 -50 36 -15 0 11 5 20 10 20 6 0 10 12 10 27 0 18 10 35 28 49 23 19 28 31 32 91 l5 68 38 3 c29 3 37 7 37 23 0 19 -17 23 -65 12z"></path><path id="pzWJcfRkF" d="M450 1791 c0 -16 8 -20 38 -23 l37 -3 5 -68 c4 -60 9 -72 33 -91 17 -14 27 -31 27 -49 0 -15 5 -27 10 -27 6 0 10 -9 10 -20 0 -35 29 -23 36 15 8 46 0 77 -33 116 -23 27 -28 43 -29 87 -1 62 -5 66 -81 76 -48 6 -53 5 -53 -13z"></path><path id="pwVYxAAYJ" d="M178 1774 c-5 -4 -8 -19 -8 -33 1 -23 2 -24 11 -8 11 19 9 53 -3 41z"></path><path id="pckrDKUhl" d="M650 1761 c0 -11 5 -23 10 -26 6 -3 10 3 10 14 0 11 -4 23 -10 26 -5 3 -10 -3 -10 -14z"></path><path id="po4ck10VN" d="M122 1612 c-16 -72 -15 -82 8 -82 17 0 20 6 19 38 -1 20 -4 51 -8 67 -7 28 -8 27 -19 -23z"></path><path id="p1GTJQxKsC" d="M696 1620 c-3 -22 -9 -58 -12 -80 -5 -35 -3 -40 14 -40 27 0 36 40 22 106 -6 30 -13 54 -15 54 -2 0 -6 -18 -9 -40z"></path><path id="p2SAbwA31" d="M114 1133 c4 -93 4 -93 20 -93 16 0 26 43 26 111 0 45 -2 49 -24 49 -24 0 -24 -2 -22 -67z"></path><path id="pezWX2l9V" d="M680 1151 c0 -67 10 -111 25 -111 16 0 23 35 24 108 0 49 -2 52 -25 52 -22 0 -24 -4 -24 -49z"></path><path id="pen3laJnu" d="M600 1005 c0 -16 -6 -25 -15 -25 -8 0 -15 -8 -16 -17 0 -11 -3 -13 -6 -5 -2 6 -20 12 -39 12 -28 0 -34 -4 -34 -21 0 -18 4 -20 48 -14 104 14 102 13 102 56 0 32 -3 39 -20 39 -15 0 -20 -7 -20 -25z"></path><path id="p136bRtKpo" d="M200 986 c0 -38 0 -37 103 -51 43 -6 47 -4 47 14 0 17 -6 21 -34 21 -19 0 -37 -6 -39 -12 -3 -8 -6 -6 -6 5 -1 9 -8 17 -16 17 -8 0 -15 9 -15 20 0 13 -7 20 -20 20 -16 0 -20 -7 -20 -34z"></path><path id="p17eOlAOkP" d="M120 935 c0 -40 24 -49 34 -12 10 37 7 47 -14 47 -16 0 -20 -7 -20 -35z"></path><path id="p16INBLHIj" d="M680 958 c0 -30 13 -58 26 -58 9 0 14 12 14 35 0 28 -4 35 -20 35 -11 0 -20 -6 -20 -12z"></path><path id="pTYBITt8k" d="M204 896 c-13 -53 -4 -60 76 -69 127 -13 208 -10 246 8 25 12 47 15 75 10 38 -7 39 -6 39 22 0 51 -10 56 -86 48 -38 -5 -61 -10 -51 -12 9 -3 17 -12 16 -21 0 -11 -2 -12 -6 -4 -9 22 -28 13 -40 -18 -10 -25 -17 -30 -46 -30 -37 0 -67 21 -67 46 0 8 -8 14 -17 14 -14 0 -15 2 -5 9 15 9 -38 21 -95 21 -26 0 -34 -5 -39 -24z m87 -16 c22 0 39 -5 39 -11 0 -6 -7 -8 -16 -5 -9 3 -29 6 -45 6 -24 0 -29 4 -28 23 1 16 2 18 6 5 3 -13 15 -18 44 -18z"></path><path id="pkcPZI4uK" d="M113 813 c-5 -21 -7 -49 -3 -62 5 -21 8 -16 18 28 14 63 15 71 3 71 -5 0 -13 -17 -18 -37z"></path><path id="p1GVwSk6qK" d="M700 838 c0 -7 6 -35 13 -63 11 -40 15 -46 19 -28 7 26 -10 103 -23 103 -5 0 -9 -6 -9 -12z"></path><path id="pJwuuzYyj" d="M166 749 c-10 -51 -5 -66 9 -29 16 42 18 60 6 60 -5 0 -11 -14 -15 -31z"></path><path id="pliZnuYjI" d="M656 743 c7 -40 24 -69 24 -41 0 32 -13 78 -22 78 -5 0 -6 -17 -2 -37z"></path><path id="pgVwAY0ug" d="M590 615 c-22 -13 -23 -14 -5 -14 11 0 29 6 39 14 26 20 0 20 -34 0z"></path><path id="pphAyRBww" d="M283 596 c41 -20 56 -23 100 -16 33 5 41 8 22 9 -16 1 -55 8 -85 16 -79 21 -92 18 -37 -9z"></path></g></g><g id="l58tHuQe8wbX7p2MT6iVK5n" fill="rgb(41,41,41)" style="transform: none;"><g><path id="pq2Mprlm0" d="M325 1802 l-40 -7 -5 -68 c-5 -63 -8 -71 -39 -96 -26 -22 -32 -32 -27 -49 5 -13 3 -22 -3 -22 -6 0 -11 -20 -11 -45 0 -41 2 -45 24 -45 17 0 26 7 30 23 3 13 17 29 31 37 19 10 25 21 25 47 0 20 6 36 15 39 20 8 38 68 33 115 l-4 39 68 0 68 0 0 -63 c0 -51 4 -68 20 -82 12 -11 20 -31 20 -49 0 -24 7 -35 30 -48 21 -12 30 -25 30 -43 0 -20 5 -25 25 -25 23 0 25 3 25 50 0 29 -5 50 -11 50 -6 0 -8 9 -4 21 5 16 -2 29 -29 54 -34 31 -36 37 -36 93 0 34 -4 63 -9 66 -15 10 -183 15 -226 8z"></path><path id="pqJStN1Bc" d="M650 1755 c0 -8 5 -15 10 -15 6 0 10 7 10 15 0 8 -4 15 -10 15 -5 0 -10 -7 -10 -15z"></path><path id="p1VzR9Xh9" d="M126 1620 c-8 -30 -11 -81 -8 -137 2 -37 5 -43 23 -43 21 0 21 3 14 81 -3 45 -10 91 -15 103 -8 20 -8 20 -14 -4z"></path><path id="p1IZ40pd7" d="M697 1613 c-3 -15 -9 -49 -12 -75 -6 -43 -4 -48 13 -48 26 0 34 35 23 94 -11 58 -18 66 -24 29z"></path><path id="pCDMEGWER" d="M110 1190 c0 -11 5 -20 11 -20 7 0 9 -14 6 -37 -5 -35 -14 -394 -10 -390 1 1 9 34 18 72 11 44 19 131 22 233 l5 162 -26 0 c-19 0 -26 -5 -26 -20z"></path><path id="p5IF8FqiP" d="M683 1043 c4 -115 12 -192 25 -243 l20 -75 -4 125 c-3 69 -6 169 -9 223 -2 58 0 97 5 97 6 0 10 9 10 20 0 15 -7 20 -26 20 l-27 0 6 -167z"></path><path id="pyOKWQUx" d="M200 1076 c0 -35 3 -77 6 -94 7 -33 11 -35 112 -47 47 -6 52 -5 52 13 0 16 -9 20 -50 24 -28 3 -53 7 -55 10 -3 3 -11 39 -17 81 -10 63 -16 77 -30 77 -15 0 -18 -9 -18 -64z"></path><path id="pRMF97jFc" d="M600 1106 c0 -14 -5 -47 -12 -74 -12 -54 -23 -62 -85 -62 -27 0 -33 -4 -33 -21 0 -19 4 -20 53 -14 103 12 104 13 111 53 3 20 6 61 6 90 0 45 -3 52 -20 52 -14 0 -20 -7 -20 -24z"></path><path id="p1HtD2tTca" d="M206 896 c-3 -14 -3 -31 0 -39 5 -14 71 -27 141 -27 29 0 31 1 20 24 -10 21 -17 24 -57 21 -25 -1 -35 -1 -22 2 12 2 22 9 22 14 0 5 10 10 23 10 26 2 -55 17 -94 18 -20 1 -28 -5 -33 -23z"></path><path id="pqtGLawlb" d="M528 913 c-27 -3 -35 -8 -31 -18 2 -8 -2 -22 -11 -30 -9 -9 -16 -20 -16 -25 0 -12 29 -20 35 -10 4 6 33 10 65 10 65 0 74 7 65 50 -7 32 -11 33 -107 23z"></path></g></g><g id="l693u1t1fR1MnqOU6pO3wUV" fill="rgb(33,33,33)" style="transform: none;"><g><path id="pUSgJ3bNL" d="M307 1786 c-3 -7 -1 -18 3 -22 14 -14 18 -56 8 -85 -5 -14 -29 -38 -53 -54 -48 -30 -50 -45 -7 -45 l27 -1 -28 -17 c-15 -9 -30 -27 -33 -39 -4 -13 -11 -23 -16 -23 -14 0 -4 -421 12 -492 14 -64 12 -63 128 -74 69 -6 72 -6 72 15 0 15 -6 21 -24 21 -18 0 -25 7 -29 30 -6 27 -10 30 -45 30 -21 0 -43 5 -50 12 -15 15 -17 393 -3 431 8 20 20 26 78 35 82 14 201 0 221 -26 17 -22 17 -423 0 -440 -7 -7 -29 -12 -49 -12 -31 0 -38 -4 -49 -30 -7 -16 -19 -30 -26 -30 -8 0 -14 -10 -14 -21 0 -20 3 -21 68 -14 108 11 107 10 122 68 17 68 27 503 11 493 -7 -5 -11 2 -11 19 0 18 -9 31 -31 44 l-32 19 28 4 c30 3 48 28 21 28 -8 0 -31 14 -51 31 -30 26 -35 38 -35 73 0 23 6 48 12 54 23 23 -12 32 -118 32 -77 0 -103 -3 -107 -14z"></path><path id="pbwdExz5V" d="M170 1749 c0 -11 5 -17 10 -14 6 3 10 13 10 21 0 8 -4 14 -10 14 -5 0 -10 -9 -10 -21z"></path><path id="p1d452tcY" d="M125 1615 c-5 -22 -9 -71 -9 -110 -1 -66 0 -70 22 -73 23 -3 23 -3 17 75 -3 43 -10 94 -14 113 l-8 35 -8 -40z"></path><path id="pAsUqliu0" d="M697 1614 c-4 -21 -9 -72 -13 -112 -7 -74 -7 -74 17 -70 23 3 24 5 22 88 -1 47 -6 96 -11 109 -8 23 -9 22 -15 -15z"></path><path id="p1DEkyhbix" d="M138 1109 c-28 -16 -20 -109 8 -109 10 0 14 16 14 60 0 33 -1 60 -2 60 -2 0 -11 -5 -20 -11z"></path><path id="pS7yq1kFV" d="M680 1066 c0 -42 4 -56 15 -56 18 0 32 67 18 89 -22 34 -33 23 -33 -33z"></path><path id="pB2hGFmge" d="M130 945 c0 -39 14 -47 24 -12 9 35 7 47 -9 47 -10 0 -15 -11 -15 -35z"></path><path id="pVbf8czKH" d="M680 968 c0 -25 12 -58 21 -58 5 0 9 16 9 35 0 24 -5 35 -15 35 -8 0 -15 -6 -15 -12z"></path><path id="pqcWrslle" d="M210 892 c0 -37 17 -52 57 -52 31 0 33 2 33 34 0 35 -15 46 -67 46 -19 0 -23 -6 -23 -28z"></path><path id="p4sFnZbpW" d="M535 911 c-46 -6 -50 -8 -56 -38 -3 -18 -2 -34 2 -35 5 -2 39 -1 76 2 l68 5 3 38 c4 41 8 40 -93 28z m49 -36 c-4 -8 -14 -15 -24 -15 -10 0 -20 7 -24 15 -4 11 2 15 24 15 22 0 28 -4 24 -15z"></path><path id="peFK9qTLI" d="M321 878 c5 -18 9 -33 9 -34 0 -1 8 -4 18 -6 16 -5 18 0 13 31 -5 27 -12 37 -28 39 -20 3 -21 1 -12 -30z"></path><path id="prgSRXlhK" d="M117 793 c-4 -3 -7 -18 -6 -32 1 -26 1 -25 10 3 9 31 7 41 -4 29z"></path><path id="p15O5TJun9" d="M711 793 c0 -4 4 -17 9 -28 8 -19 9 -19 9 2 1 12 -3 25 -9 28 -5 3 -10 3 -9 -2z"></path></g></g><g id="l4cmi4PS2dql3V8dDYs70Cv" fill="rgb(25,25,25)" style="transform: none;"><g><path id="powJfUCS6" d="M127 1611 c-11 -51 -8 -84 8 -105 14 -18 15 -16 14 30 -1 27 -4 63 -8 79 l-7 30 -7 -34z"></path><path id="pjYDngWGM" d="M306 1621 c-26 -11 -51 -22 -54 -25 -3 -4 73 -6 169 -5 l174 1 -45 21 c-64 30 -179 34 -244 8z"></path><path id="pzlpFia2x" d="M697 1605 c-4 -22 -7 -58 -7 -79 0 -37 1 -39 15 -20 15 20 19 86 6 119 -6 15 -9 11 -14 -20z"></path><path id="pE6NaRzto" d="M306 1536 c-43 -8 -61 -16 -67 -31 -4 -11 -8 -73 -8 -137 -1 -112 0 -118 19 -118 19 0 20 7 20 119 l0 119 32 7 c17 4 70 7 118 7 48 0 101 -3 118 -7 l32 -7 0 -104 c0 -97 1 -104 20 -104 19 0 20 7 20 108 0 71 -4 114 -13 124 -7 10 -40 21 -84 27 -86 13 -129 13 -207 -3z"></path><path id="pVmAm1LXm" d="M128 1472 c-16 -3 -18 -18 -18 -148 0 -143 0 -144 23 -144 22 0 22 1 20 146 -1 81 -3 147 -5 148 -2 1 -11 1 -20 -2z"></path><path id="ptJCw9HQq" d="M690 1472 c0 -4 -2 -71 -3 -150 -2 -141 -2 -142 21 -142 22 0 22 1 22 144 0 135 -1 144 -20 149 -11 3 -20 2 -20 -1z"></path><path id="pdTL0psrf" d="M290 1165 c0 -35 0 -35 45 -35 45 0 45 0 45 35 0 35 0 35 -45 35 -45 0 -45 0 -45 -35z"></path><path id="pE5oQcTzS" d="M500 1165 l0 -35 50 0 50 0 0 35 0 35 -50 0 -50 0 0 -35z"></path><path id="pKr1nH5Zv" d="M230 1072 c0 -58 12 -72 62 -72 34 0 39 -3 44 -29 5 -25 12 -30 50 -36 44 -6 115 2 112 14 -1 3 1 16 6 29 6 17 15 22 45 22 49 0 61 14 61 72 0 41 -3 48 -20 48 -16 0 -20 -7 -20 -38 l0 -37 -147 1 -148 2 -3 36 c-3 28 -8 36 -23 36 -16 0 -19 -7 -19 -48z"></path><path id="p18v7sgzig" d="M680 1087 c0 -25 5 -37 14 -37 22 0 26 37 5 56 -18 16 -19 16 -19 -19z"></path><path id="pus64gw8H" d="M134 1098 c-5 -7 -7 -71 -4 -143 6 -149 16 -133 26 43 7 108 1 133 -22 100z"></path><path id="pKGuAisRs" d="M684 963 c13 -144 24 -159 25 -35 1 97 -1 112 -15 112 -15 0 -16 -10 -10 -77z"></path><path id="p177aE2d0h" d="M220 911 c0 -24 24 -60 44 -65 11 -3 38 -6 59 -6 38 0 46 14 31 54 -7 19 -44 22 -44 4 0 -9 -3 -10 -8 -2 -10 15 -82 28 -82 15z"></path><path id="pP9q2cHu1" d="M548 913 c-61 -4 -76 -19 -58 -54 14 -25 107 -28 117 -4 8 24 -7 32 -21 12 -18 -23 -56 -23 -56 2 0 14 10 20 39 25 22 3 43 11 46 16 3 6 3 9 -2 8 -4 -1 -33 -3 -65 -5z"></path></g></g><g id="l63rQVm2uz3cUmkLoOct2Uu" fill="rgb(16,16,16)" style="transform: none;"><g><path id="pvbcp2PEZ" d="M129 1614 c-2 -38 3 -79 12 -94 6 -10 7 6 3 45 -7 62 -13 83 -15 49z"></path><path id="p1EB357fcS" d="M701 1610 c-1 -14 -4 -43 -7 -65 -5 -32 -4 -38 6 -28 15 14 20 68 9 98 -7 18 -8 17 -8 -5z"></path><path id="p1GzgPFS0H" d="M350 1610 c-17 -5 5 -8 65 -8 59 0 83 2 70 8 -25 11 -102 11 -135 0z"></path><path id="p7maQ7aVv" d="M340 1534 c-98 -12 -100 -12 -100 -49 0 -24 5 -35 15 -35 21 0 69 23 78 37 11 18 160 18 179 1 21 -20 56 -38 73 -38 10 0 15 10 15 34 0 27 -5 35 -22 39 -34 8 -198 16 -238 11z"></path><path id="pvq3cRqlc" d="M120 1325 c0 -134 1 -146 18 -143 15 3 17 18 17 143 0 125 -2 140 -17 143 -17 3 -18 -9 -18 -143z"></path><path id="p16RW0U9CO" d="M687 1463 c-7 -7 -10 -273 -3 -273 2 0 11 -3 20 -6 14 -5 16 11 16 140 0 115 -3 146 -13 146 -8 0 -17 -3 -20 -7z"></path><path id="pzr2xbojt" d="M238 1413 c-9 -41 -2 -382 8 -393 5 -5 28 -10 50 -10 82 1 201 1 247 0 27 -1 50 0 52 2 10 10 17 197 10 291 l-7 107 -55 0 c-46 0 -56 -3 -60 -20 -5 -17 -14 -20 -63 -20 -49 0 -58 3 -63 20 -4 16 -14 20 -46 20 -23 0 -41 5 -41 10 0 17 -27 11 -32 -7z m260 -200 c-43 -2 -113 -2 -155 0 -43 1 -8 3 77 3 85 0 120 -2 78 -3z m72 -97 c0 -7 -10 -24 -22 -37 -22 -23 -28 -24 -123 -20 -79 2 -106 7 -127 23 -16 11 -28 26 -28 34 0 11 27 14 150 14 119 0 150 -3 150 -14z"></path><path id="p3bMBuvdM" d="M137 1103 c-10 -10 -8 -113 2 -113 10 0 21 48 21 91 0 28 -9 36 -23 22z"></path><path id="pr94zv8J5" d="M680 1068 c0 -52 9 -88 22 -88 14 0 5 123 -9 128 -9 2 -13 -9 -13 -40z"></path><path id="pZlAaynh5" d="M131 888 c1 -45 2 -49 9 -23 11 44 11 75 0 75 -6 0 -9 -23 -9 -52z"></path><path id="pjobfFq6e" d="M691 923 c0 -10 4 -36 8 -58 9 -40 9 -39 10 18 0 32 -3 57 -9 57 -5 0 -10 -8 -9 -17z"></path><path id="pZp3CCmcC" d="M246 902 c6 -4 16 -17 23 -29 16 -30 91 -34 91 -5 0 30 -21 42 -74 42 -28 0 -46 -4 -40 -8z"></path><path id="pVnyX5v0m" d="M492 898 c-7 -7 -12 -22 -12 -35 0 -18 6 -23 25 -23 22 0 25 4 22 35 -2 36 -14 44 -35 23z"></path></g></g><g id="l2ZE7qrfoBQUuCn9B4Egn1o" fill="rgb(8,8,8)" style="transform: none;"><g><path id="pGVseLdDr" d="M303 1517 c-4 -7 -20 -18 -35 -24 -25 -11 -28 -18 -28 -62 l0 -50 42 -3 c35 -3 43 -7 51 -31 11 -35 7 -39 -46 -48 -24 -4 32 -6 128 -6 94 0 154 2 135 6 -32 5 -35 9 -35 41 0 34 1 35 43 38 l43 3 -3 51 c-2 38 -8 54 -23 62 -10 6 -25 17 -33 24 -19 17 -228 17 -239 -1z m185 -195 c3 -9 -15 -12 -67 -12 -54 0 -71 3 -71 14 0 19 131 17 138 -2z"></path><path id="pwJrGEa7s" d="M134 1408 c3 -29 6 -87 7 -128 1 -63 2 -70 10 -45 6 17 8 59 5 95 -3 36 -6 80 -6 98 0 17 -5 32 -11 32 -8 0 -10 -16 -5 -52z"></path><path id="pvP3nZueh" d="M688 1423 c-4 -95 -3 -151 3 -193 6 -43 10 15 14 188 1 52 -14 57 -17 5z"></path><path id="p1Bj6ExQMy" d="M240 1160 l0 -89 44 -30 c39 -27 48 -29 75 -20 30 11 77 8 149 -7 29 -6 37 -2 63 27 27 31 29 37 29 121 l0 88 -180 0 -180 0 0 -90z m140 10 c0 -6 -25 -10 -60 -10 -33 0 -60 4 -60 9 0 4 27 9 60 10 36 1 60 -3 60 -9z m115 0 c4 -6 -15 -10 -50 -10 -35 0 -54 4 -50 10 3 6 26 10 50 10 24 0 47 -4 50 -10z m90 0 c4 -6 -8 -10 -29 -10 -20 0 -36 5 -36 10 0 6 13 10 29 10 17 0 33 -4 36 -10z"></path><path id="p1ESJzHzHH" d="M137 1093 c-4 -3 -7 -58 -6 -122 1 -88 3 -108 10 -81 6 26 9 210 3 210 0 0 -4 -3 -7 -7z"></path><path id="piQZVDBMi" d="M691 1008 c2 -144 16 -174 18 -36 1 68 -3 119 -9 123 -6 4 -10 -27 -9 -87z"></path><path id="pcocLxzRd" d="M300 893 c14 -9 28 -21 31 -26 13 -18 27 -2 18 21 -6 16 -16 22 -41 22 l-32 0 24 -17z"></path><path id="pldLNsQOY" d="M486 884 c-10 -26 -7 -34 14 -34 23 0 27 22 6 39 -11 9 -15 8 -20 -5z"></path></g></g><g id="l6iOCy5Z8fg1bjJLcGaSjQQ" fill="rgb(0,0,0)" style="transform: none;"><g></g></g></svg>