<svg xmlns="http://www.w3.org/2000/svg" viewBox="0 0 512 512" role="img" aria-label="Libremotor">
  <path fill="#07100B" d="M128 58 L384 58 L480 256 L384 454 L128 454 L32 256 Z"></path>
  <path fill="#112018" d="M148 90 L364 90 L444 256 L364 422 L148 422 L68 256 Z"></path>
  <path fill="#07100B" stroke="#07100B" stroke-linejoin="miter" stroke-width="14" d="M240 128 496 640H784L528 128ZM608 0 864 512 736 768H416L288 512H0L256 1024H896L1152 512L896 0Z" transform="translate(160.684 352.256) scale(0.188 -0.188)"></path>
  <path fill="#07100B" stroke="#07100B" stroke-linejoin="miter" stroke-width="14" d="M256 0 0 512 256 1024H544L288 512L416 256H1024L896 0Z" transform="translate(134.74 352.256) scale(0.188 -0.188)"></path>
  <path fill="#DFFFEA" d="M240 128 496 640H784L528 128ZM608 0 864 512 736 768H416L288 512H0L256 1024H896L1152 512L896 0Z" transform="translate(160.684 352.256) scale(0.188 -0.188)"></path>
  <path fill="#23F46E" d="M256 0 0 512 256 1024H544L288 512L416 256H1024L896 0Z" transform="translate(134.74 352.256) scale(0.188 -0.188)"></path>
</svg>